<?xml version="1.0" encoding="UTF-8" standalone="no"?>
<svg
   xmlns:dc="http://purl.org/dc/elements/1.1/"
   xmlns:cc="http://creativecommons.org/ns#"
   xmlns:rdf="http://www.w3.org/1999/02/22-rdf-syntax-ns#"
   xmlns:svg="http://www.w3.org/2000/svg"
   xmlns="http://www.w3.org/2000/svg"
   xmlns:sodipodi="http://sodipodi.sourceforge.net/DTD/sodipodi-0.dtd"
   xmlns:inkscape="http://www.inkscape.org/namespaces/inkscape"
   id="asvg1SVG"
   width="800"
   height="600"
   version="1.1"
   sodipodi:docname="2pow_x_vs_xpow_16.svg"
   inkscape:version="0.92.3 (2405546, 2018-03-11)">
  <metadata
     id="metadata151">
    <rdf:RDF>
      <cc:Work
         rdf:about="">
        <dc:format>image/svg+xml</dc:format>
        <dc:type
           rdf:resource="http://purl.org/dc/dcmitype/StillImage" />
        <dc:title></dc:title>
      </cc:Work>
    </rdf:RDF>
  </metadata>
  <defs
     id="defs149">
    <clipPath
       clipPathUnits="userSpaceOnUse"
       id="clipPath163">
      <rect
         style="fill:#0000ff;fill-rule:evenodd;stroke:#000000;stroke-width:1px;stroke-linecap:butt;stroke-linejoin:miter;stroke-opacity:1"
         id="rect165"
         width="630.75842"
         height="367.83707"
         x="-82.162918"
         y="289.04495" />
    </clipPath>
  </defs>
  <sodipodi:namedview
     pagecolor="#ffffff"
     bordercolor="#666666"
     borderopacity="1"
     objecttolerance="10"
     gridtolerance="10"
     guidetolerance="10"
     inkscape:pageopacity="0"
     inkscape:pageshadow="2"
     inkscape:window-width="1304"
     inkscape:window-height="745"
     id="namedview147"
     showgrid="false"
     inkscape:zoom="0.5"
     inkscape:cx="122.04911"
     inkscape:cy="345.04795"
     inkscape:window-x="54"
     inkscape:window-y="-8"
     inkscape:window-maximized="1"
     inkscape:current-layer="asvg1SVG" />
  <g
     id="g218"
     transform="translate(41.713483,-177.14606)">
    <rect
       style="fill:#ffffff;stroke:none"
       height="250"
       width="450"
       y="350"
       x="0"
       id="brdBg_asvg1" />
    <path
       clip-path="url(#clipPath163)"
       style="fill:none;stroke:#dddddd;stroke-width:1;shape-rendering:crispEdges"
       inkscape:connector-curvature="0"
       id="path3"
       d="m -23407.17,350 v 250 m 218.72,-250 v 250 m 218.72,-250 v 250 m 218.71,-250 v 250 m 218.72,-250 v 250 m 218.72,-250 v 250 m 218.71,-250 v 250 m 218.72,-250 v 250 m 218.72,-250 v 250 m 218.72,-250 V 600 M -21220,350 v 250 m 218.72,-250 v 250 m 218.72,-250 v 250 m 218.71,-250 v 250 m 218.72,-250 v 250 m 218.72,-250 v 250 m 218.72,-250 v 250 m 218.71,-250 v 250 m 218.72,-250 v 250 m 218.72,-250 v 250 m 218.71,-250 v 250 m 218.72,-250 v 250 m 218.72,-250 v 250 m 218.72,-250 v 250 m 218.71,-250 v 250 m 218.72,-250 v 250 m 218.72,-250 v 250 m 218.71,-250 v 250 m 218.72,-250 v 250 m 218.72,-250 v 250 m 218.72,-250 v 250 m 218.71,-250 v 250 m 218.72,-250 v 250 m 218.72,-250 v 250 m 218.71,-250 v 250 m 218.72,-250 v 250 m 218.72,-250 v 250 m 218.72,-250 v 250 m 218.71,-250 v 250 m 218.72,-250 v 250 m 218.72,-250 v 250 m 218.71,-250 v 250 m 218.72,-250 v 250 m 218.72,-250 v 250 m 218.72,-250 v 250 m 218.71,-250 v 250 m 218.72,-250 v 250 m 218.72,-250 v 250 m 218.71,-250 v 250 m 218.72,-250 v 250 m 218.72,-250 v 250 m 218.72,-250 v 250 m 218.71,-250 v 250 m 218.72,-250 v 250 m 218.72,-250 v 250 m 218.71,-250 v 250 m 218.72,-250 v 250 m 218.72,-250 v 250 m 218.72,-250 v 250 m 218.71,-250 v 250 m 218.72,-250 v 250 m 218.72,-250 v 250 m 218.71,-250 v 250 m 218.72,-250 v 250 m 218.72,-250 v 250 m 218.72,-250 v 250 m 218.71,-250 v 250 m 218.72,-250 v 250 m 218.72,-250 v 250 m 218.71,-250 v 250 m 218.72,-250 v 250 m 218.72,-250 v 250 m 218.72,-250 v 250 m 218.71,-250 v 250 m 218.72,-250 v 250 m 218.72,-250 v 250 m 218.71,-250 v 250 m 218.72,-250 v 250 m 218.72,-250 v 250 m 218.72,-250 v 250 m 218.71,-250 v 250 m 218.72,-250 v 250 m 218.72,-250 v 250 m 218.71,-250 v 250 m 218.72,-250 v 250 m 218.72,-250 v 250 m 218.72,-250 v 250 m 218.71,-250 v 250 m 218.72,-250 v 250 m 218.72,-250 v 250 m 218.71,-250 v 250 m 218.72,-250 v 250 m 218.72,-250 v 250 m 218.72,-250 v 250 m 218.71,-250 v 250 m 218.72,-250 v 250 m 218.72,-250 v 250 m 218.71,-250 v 250 m 218.72,-250 v 250 m 218.72,-250 v 250 m 218.72,-250 v 250 m 218.71,-250 v 250 m 218.72,-250 V 600 M -879.3,350 V 600 M -660.59,350 V 600 M -441.87,350 V 600 M -223.15,350 V 600 M -4.43,350 V 600 M 214.28,350 V 600 M 433,350 V 600 M 0,583 H 450 M 0,556 H 450 M 0,529 H 450 M 0,502 H 450 M 0,475 H 450 M 0,448 H 450 M 0,421 H 450 M 0,394 H 450 M 0,367 h 450" />
    <text
       font-weight="normal"
       class="intmath"
       style="font-weight:normal;font-size:12px;text-anchor:middle"
       y="599"
       x="-4.4299998"
       id="asvg1SVG-text-3691">107</text>
    <text
       font-weight="normal"
       class="intmath"
       style="font-weight:normal;font-size:12px;text-anchor:middle"
       y="599"
       x="214.28"
       id="asvg1SVG-text-3692">108</text>
    <text
       font-weight="normal"
       class="intmath"
       style="font-weight:normal;font-size:12px;text-anchor:middle"
       y="599"
       x="433"
       id="asvg1SVG-text-3693">109</text>
    <text
       font-weight="normal"
       class="intmath"
       style="font-weight:normal;font-size:12px;text-anchor:start"
       y="560"
       x="23"
       id="asvg1SVG-text-3694">1*10<tspan
   style="baseline-shift:super"
   id="tspan116"
   baseline-shift="super">32</tspan>
</text>
    <text
       font-weight="normal"
       class="intmath"
       style="font-weight:normal;font-size:12px;text-anchor:start"
       y="533"
       x="23"
       id="asvg1SVG-text-3695">2*10<tspan
   style="baseline-shift:super"
   id="tspan119"
   baseline-shift="super">32</tspan>
</text>
    <text
       font-weight="normal"
       class="intmath"
       style="font-weight:normal;font-size:12px;text-anchor:start"
       y="506"
       x="23"
       id="asvg1SVG-text-3696">3*10<tspan
   style="baseline-shift:super"
   id="tspan122"
   baseline-shift="super">32</tspan>
</text>
    <text
       font-weight="normal"
       class="intmath"
       style="font-weight:normal;font-size:12px;text-anchor:start"
       y="479"
       x="23"
       id="asvg1SVG-text-3697">4*10<tspan
   style="baseline-shift:super"
   id="tspan125"
   baseline-shift="super">32</tspan>
</text>
    <text
       font-weight="normal"
       class="intmath"
       style="font-weight:normal;font-size:12px;text-anchor:start"
       y="452"
       x="23"
       id="asvg1SVG-text-3698">5*10<tspan
   style="baseline-shift:super"
   id="tspan128"
   baseline-shift="super">32</tspan>
</text>
    <text
       font-weight="normal"
       class="intmath"
       style="font-weight:normal;font-size:12px;text-anchor:start"
       y="425"
       x="23"
       id="asvg1SVG-text-3699">6*10<tspan
   style="baseline-shift:super"
   id="tspan131"
   baseline-shift="super">32</tspan>
</text>
    <text
       font-weight="normal"
       class="intmath"
       style="font-weight:normal;font-size:12px;text-anchor:start"
       y="398"
       x="23"
       id="asvg1SVG-text-3700">7*10<tspan
   style="baseline-shift:super"
   id="tspan134"
   baseline-shift="super">32</tspan>
</text>
    <text
       font-weight="normal"
       class="intmath"
       style="font-weight:normal;font-size:12px;text-anchor:start"
       y="371"
       x="23"
       id="asvg1SVG-text-3701">8*10<tspan
   style="baseline-shift:super"
   id="tspan137"
   baseline-shift="super">32</tspan>
</text>
    <text
       font-weight="normal"
       class="intmathItalic"
       style="font-weight:normal;font-size:16px;text-anchor:middle"
       y="577"
       x="440"
       id="asvg1SVGxAxVbl">x</text>
    <path
       style="fill:#555555;stroke:#555555"
       inkscape:connector-curvature="0"
       id="xaxisArr"
       d="m 450,583 -12,-3 v 7 z" />
    <path
       style="vector-effect:non-scaling-stroke;fill:none;fill-opacity:1;stroke:#165a71;stroke-width:1.5;stroke-opacity:1"
       inkscape:connector-curvature="0"
       d="m 17,536.11 0.83,-0.12 0.83,-0.13 0.84,-0.12 0.83,-0.13 0.83,-0.12 0.83,-0.13 0.83,-0.12 0.84,-0.13 0.83,-0.13 0.83,-0.12 0.83,-0.13 0.83,-0.13 0.84,-0.12 0.83,-0.13 0.83,-0.13 0.83,-0.13 0.83,-0.13 0.84,-0.13 0.83,-0.13 0.83,-0.13 0.83,-0.13 0.83,-0.13 0.84,-0.13 0.83,-0.13 0.83,-0.13 0.83,-0.14 0.83,-0.13 0.84,-0.13 0.83,-0.14 0.83,-0.13 0.83,-0.13 0.83,-0.14 0.84,-0.13 0.83,-0.14 0.83,-0.13 0.83,-0.14 0.83,-0.13 0.84,-0.14 0.83,-0.14 0.83,-0.13 0.83,-0.14 0.83,-0.14 0.84,-0.14 0.83,-0.14 0.83,-0.14 0.83,-0.14 0.83,-0.14 0.84,-0.14 0.83,-0.14 0.83,-0.14 0.83,-0.14 0.83,-0.14 0.84,-0.14 0.83,-0.14 0.83,-0.15 0.83,-0.14 0.83,-0.14 0.84,-0.15 0.83,-0.14 0.83,-0.15 0.83,-0.14 0.83,-0.15 0.84,-0.14 0.83,-0.15 0.83,-0.15 0.83,-0.14 0.83,-0.15 0.84,-0.15 0.83,-0.15 0.83,-0.14 0.83,-0.15 0.83,-0.15 0.84,-0.15 0.83,-0.15 0.83,-0.15 0.83,-0.15 0.83,-0.15 0.84,-0.16 0.83,-0.15 0.83,-0.15 0.83,-0.15 0.83,-0.16 0.84,-0.15 0.83,-0.15 0.83,-0.16 0.83,-0.15 0.83,-0.16 0.84,-0.15 0.83,-0.16 0.83,-0.16 0.83,-0.15 0.83,-0.16 0.84,-0.16 0.83,-0.16 0.83,-0.16 0.83,-0.16 0.83,-0.16 0.84,-0.15 0.83,-0.17 0.83,-0.16 0.83,-0.16 0.83,-0.16 0.84,-0.16 0.83,-0.16 0.83,-0.17 0.83,-0.16 0.83,-0.16 0.84,-0.17 0.83,-0.16 0.83,-0.17 0.83,-0.16 0.83,-0.17 0.84,-0.16 0.83,-0.17 0.83,-0.17 0.83,-0.17 0.83,-0.16 0.84,-0.17 0.83,-0.17 0.83,-0.17 0.83,-0.17 0.83,-0.17 0.84,-0.17 0.83,-0.17 0.83,-0.17 0.83,-0.18 0.83,-0.17 0.84,-0.17 0.83,-0.18 0.83,-0.17 0.83,-0.17 0.83,-0.18 0.84,-0.17 0.83,-0.18 0.83,-0.18 0.83,-0.17 0.83,-0.18 0.84,-0.18 0.83,-0.18 0.83,-0.18 0.83,-0.17 0.83,-0.18 0.84,-0.18 0.83,-0.18 0.83,-0.19 0.83,-0.18 0.83,-0.18 0.84,-0.18 0.83,-0.18 0.83,-0.19 0.83,-0.18 0.83,-0.19 0.84,-0.18 0.83,-0.19 0.83,-0.18 0.83,-0.19 0.83,-0.18 0.84,-0.19 0.83,-0.19 0.83,-0.19 0.83,-0.19 0.83,-0.19 0.84,-0.19 0.83,-0.19 0.83,-0.19 0.83,-0.19 0.83,-0.19 0.84,-0.19 0.83,-0.19 0.83,-0.2 0.83,-0.19 0.83,-0.2 0.84,-0.19 0.83,-0.2 0.83,-0.19 0.83,-0.2 0.83,-0.2 0.84,-0.19 0.83,-0.2 0.83,-0.2 0.83,-0.2 0.83,-0.2 0.84,-0.2 0.83,-0.2 0.83,-0.2 0.83,-0.2 0.83,-0.2 0.84,-0.21 0.83,-0.2 0.83,-0.2 0.83,-0.21 0.83,-0.2 0.84,-0.21 0.83,-0.2 0.83,-0.21 0.83,-0.21 0.83,-0.2 0.84,-0.21 0.83,-0.21 0.83,-0.21 0.83,-0.21 0.83,-0.21 0.84,-0.21 0.83,-0.21 0.83,-0.22 0.83,-0.21 0.83,-0.21 0.84,-0.21 0.83,-0.22 0.83,-0.21 0.83,-0.22 0.83,-0.21 0.84,-0.22 0.83,-0.22 0.83,-0.22 0.83,-0.21 0.83,-0.22 0.84,-0.22 0.83,-0.22 0.83,-0.22 0.83,-0.22 0.83,-0.23 0.84,-0.22 0.83,-0.22 0.83,-0.22 0.83,-0.23 0.83,-0.22 0.84,-0.23 0.83,-0.22 0.83,-0.23 0.83,-0.23 0.83,-0.23 0.84,-0.22 0.83,-0.23 0.83,-0.23 0.83,-0.23 0.83,-0.23 0.84,-0.23 0.83,-0.24 0.83,-0.23 0.83,-0.23 0.83,-0.23 0.84,-0.24 0.83,-0.23 0.83,-0.24 0.83,-0.24 0.83,-0.23 0.84,-0.24 0.83,-0.24 0.83,-0.24 0.83,-0.24 0.83,-0.24 0.84,-0.24 0.83,-0.24 0.83,-0.24 0.83,-0.24 0.83,-0.25 0.84,-0.24 0.83,-0.24 0.83,-0.25 0.83,-0.24 0.83,-0.25 0.84,-0.25 0.83,-0.25 0.83,-0.24 0.83,-0.25 0.83,-0.25 0.84,-0.25 0.83,-0.25 0.83,-0.26 0.83,-0.25 0.83,-0.25 0.84,-0.25 0.83,-0.26 0.83,-0.25 0.83,-0.26 0.83,-0.26 0.84,-0.25 0.83,-0.26 0.83,-0.26 0.83,-0.26 0.83,-0.26 0.84,-0.26 0.83,-0.26 0.83,-0.26 0.83,-0.26 0.83,-0.27 0.84,-0.26 0.83,-0.26 0.83,-0.27 0.83,-0.27 0.83,-0.26 0.84,-0.27 0.83,-0.27 0.83,-0.27 0.83,-0.27 0.83,-0.27 0.84,-0.27 0.83,-0.27 0.83,-0.27 0.83,-0.27 0.83,-0.28 0.84,-0.27 0.83,-0.28 0.83,-0.27 0.83,-0.28 0.83,-0.28 0.84,-0.28 0.83,-0.27 0.83,-0.28 0.83,-0.28 0.83,-0.29 0.84,-0.28 0.83,-0.28 0.83,-0.28 0.83,-0.29 0.83,-0.28 0.84,-0.29 0.83,-0.28 0.83,-0.29 0.83,-0.29 0.83,-0.29 0.84,-0.29 0.83,-0.29 0.83,-0.29 0.83,-0.29 0.83,-0.29 0.84,-0.3 0.83,-0.29 0.83,-0.29 0.83,-0.3 0.83,-0.3 0.84,-0.29 0.83,-0.3 0.83,-0.3 0.83,-0.3 0.83,-0.3 0.84,-0.3 0.83,-0.3 0.83,-0.3 0.83,-0.31 0.83,-0.3 0.84,-0.31 0.83,-0.3 0.83,-0.31 0.83,-0.31 0.83,-0.31 0.84,-0.3 0.83,-0.31 0.83,-0.32 0.83,-0.31 0.83,-0.31 0.84,-0.31 0.83,-0.32 0.83,-0.31 0.83,-0.32 0.83,-0.31 0.84,-0.32 0.83,-0.32 0.83,-0.32 0.83,-0.32 0.83,-0.32 0.84,-0.32 0.83,-0.32 0.83,-0.33 0.83,-0.32 0.83,-0.32 0.84,-0.33 0.83,-0.33 0.83,-0.32 0.83,-0.33 0.83,-0.33 0.84,-0.33 0.83,-0.33 0.83,-0.34 0.83,-0.33 0.83,-0.33 0.84,-0.34 0.83,-0.33 0.83,-0.34 0.83,-0.34 0.83,-0.33 0.84,-0.34 0.83,-0.34 0.83,-0.34 0.83,-0.34 0.83,-0.35 0.84,-0.34 0.83,-0.35 0.83,-0.34 0.83,-0.35 0.83,-0.34 0.84,-0.35 0.83,-0.35 0.83,-0.35 0.83,-0.35 0.83,-0.35 0.84,-0.36 0.83,-0.35 0.83,-0.35 0.83,-0.36 0.83,-0.36 0.84,-0.35 0.83,-0.36 0.83,-0.36 0.83,-0.36 0.83,-0.36 0.84,-0.36 0.83,-0.37 0.83,-0.36 0.83,-0.37 0.83,-0.36 0.84,-0.37 0.83,-0.37 0.83,-0.36 0.83,-0.37 0.83,-0.38 0.84,-0.37 0.83,-0.37 0.83,-0.37 0.83,-0.38 0.83,-0.37 0.84,-0.38 0.83,-0.38 0.83,-0.38 0.83,-0.38 0.83,-0.38 0.84,-0.38 0.83,-0.38 0.83,-0.39 0.83,-0.38 0.83,-0.39 0.84,-0.38 0.83,-0.39 0.83,-0.39 0.83,-0.39 0.83,-0.39 0.84,-0.39 0.83,-0.39 0.83,-0.4 0.83,-0.39 0.83,-0.4 0.84,-0.4 0.83,-0.39 0.83,-0.4 0.83,-0.4 0.83,-0.4 0.84,-0.41 0.83,-0.4 0.83,-0.4 0.83,-0.41 0.83,-0.41 0.84,-0.4 0.83,-0.41 0.83,-0.41 0.83,-0.41 0.83,-0.42 0.84,-0.41 0.83,-0.41 0.83,-0.42 0.83,-0.42 0.83,-0.41 0.84,-0.42 0.83,-0.42 0.83,-0.42 0.83,-0.42 0.83,-0.43 0.84,-0.42 0.83,-0.43 0.83,-0.42 0.83,-0.43 0.83,-0.43 0.84,-0.43 0.83,-0.43 0.83,-0.43 0.83,-0.43 0.83,-0.44 0.84,-0.43 0.83,-0.44 0.83,-0.44 0.83,-0.44 0.83,-0.44 0.84,-0.44 0.83,-0.44 0.83,-0.44 0.83,-0.45 0.83,-0.44 0.84,-0.45 0.83,-0.45 0.83,-0.45 0.83,-0.45 0.83,-0.45 0.84,-0.46 0.83,-0.45 0.83,-0.45 0.83,-0.46 0.83,-0.46 0.84,-0.46 0.83,-0.46 0.83,-0.46"
       id="asvg1SVG-plot-3702" />
    <path
       style="vector-effect:non-scaling-stroke;fill:none;fill-opacity:1;stroke:#cc00cc;stroke-width:1.5;stroke-opacity:1"
       inkscape:connector-curvature="0"
       d="m 17,502.12 0.83,-0.05 0.83,-0.05 0.84,-0.04 0.83,-0.05 0.83,-0.04 0.83,-0.05 0.83,-0.05 0.84,-0.04 0.83,-0.05 0.83,-0.05 0.83,-0.04 0.83,-0.05 0.84,-0.04 0.83,-0.05 0.83,-0.05 0.83,-0.04 0.83,-0.05 0.84,-0.05 0.83,-0.04 0.83,-0.05 0.83,-0.05 0.83,-0.04 0.84,-0.05 0.83,-0.04 0.83,-0.05 0.83,-0.05 0.83,-0.04 0.84,-0.05 0.83,-0.05 0.83,-0.04 0.83,-0.05 0.83,-0.05 0.84,-0.04 0.83,-0.05 0.83,-0.05 0.83,-0.05 0.83,-0.04 0.84,-0.05 0.83,-0.05 0.83,-0.04 0.83,-0.05 0.83,-0.05 0.84,-0.04 0.83,-0.05 0.83,-0.05 0.83,-0.05 0.83,-0.04 0.84,-0.05 0.83,-0.05 0.83,-0.04 0.83,-0.05 0.83,-0.05 0.84,-0.05 0.83,-0.04 0.83,-0.05 0.83,-0.05 0.83,-0.04 0.84,-0.05 0.83,-0.05 0.83,-0.05 0.83,-0.04 0.83,-0.05 0.84,-0.05 0.83,-0.05 0.83,-0.04 0.83,-0.05 0.83,-0.05 0.84,-0.05 0.83,-0.05 0.83,-0.04 0.83,-0.05 0.83,-0.05 0.84,-0.05 0.83,-0.04 0.83,-0.05 0.83,-0.05 0.83,-0.05 0.84,-0.05 0.83,-0.04 0.83,-0.05 0.83,-0.05 0.83,-0.05 0.84,-0.05 0.83,-0.04 0.83,-0.05 0.83,-0.05 0.83,-0.05 0.84,-0.05 0.83,-0.04 0.83,-0.05 0.83,-0.05 0.83,-0.05 0.84,-0.05 0.83,-0.05 0.83,-0.04 0.83,-0.05 0.83,-0.05 0.84,-0.05 0.83,-0.05 0.83,-0.05 0.83,-0.04 0.83,-0.05 0.84,-0.05 0.83,-0.05 0.83,-0.05 0.83,-0.05 0.83,-0.05 0.84,-0.04 0.83,-0.05 0.83,-0.05 0.83,-0.05 0.83,-0.05 0.84,-0.05 0.83,-0.05 0.83,-0.05 0.83,-0.04 0.83,-0.05 0.84,-0.05 0.83,-0.05 0.83,-0.05 0.83,-0.05 0.83,-0.05 0.84,-0.05 0.83,-0.05 0.83,-0.05 0.83,-0.04 0.83,-0.05 0.84,-0.05 0.83,-0.05 0.83,-0.05 0.83,-0.05 0.83,-0.05 0.84,-0.05 0.83,-0.05 0.83,-0.05 0.83,-0.05 0.83,-0.05 0.84,-0.05 0.83,-0.05 0.83,-0.05 0.83,-0.05 0.83,-0.04 0.84,-0.05 0.83,-0.05 0.83,-0.05 0.83,-0.05 0.83,-0.05 0.84,-0.05 0.83,-0.05 0.83,-0.05 0.83,-0.05 0.83,-0.05 0.84,-0.05 0.83,-0.05 0.83,-0.05 0.83,-0.05 0.83,-0.05 0.84,-0.05 0.83,-0.05 0.83,-0.05 0.83,-0.05 0.83,-0.05 0.84,-0.05 0.83,-0.05 0.83,-0.05 0.83,-0.05 0.83,-0.05 0.84,-0.05 0.83,-0.05 0.83,-0.05 0.83,-0.05 0.83,-0.05 0.84,-0.05 0.83,-0.05 0.83,-0.05 0.83,-0.06 0.83,-0.05 0.84,-0.05 0.83,-0.05 0.83,-0.05 0.83,-0.05 0.83,-0.05 0.84,-0.05 0.83,-0.05 0.83,-0.05 0.83,-0.05 0.83,-0.05 0.84,-0.05 0.83,-0.05 0.83,-0.05 0.83,-0.06 0.83,-0.05 0.84,-0.05 0.83,-0.05 0.83,-0.05 0.83,-0.05 0.83,-0.05 0.84,-0.05 0.83,-0.05 0.83,-0.05 0.83,-0.06 0.83,-0.05 0.84,-0.05 0.83,-0.05 0.83,-0.05 0.83,-0.05 0.83,-0.05 0.84,-0.05 0.83,-0.06 0.83,-0.05 0.83,-0.05 0.83,-0.05 0.84,-0.05 0.83,-0.05 0.83,-0.05 0.83,-0.06 0.83,-0.05 0.84,-0.05 0.83,-0.05 0.83,-0.05 0.83,-0.05 0.83,-0.06 0.84,-0.05 0.83,-0.05 0.83,-0.05 0.83,-0.05 0.83,-0.05 0.84,-0.06 0.83,-0.05 0.83,-0.05 0.83,-0.05 0.83,-0.05 0.84,-0.06 0.83,-0.05 0.83,-0.05 0.83,-0.05 0.83,-0.05 0.84,-0.06 0.83,-0.05 0.83,-0.05 0.83,-0.05 0.83,-0.06 0.84,-0.05 0.83,-0.05 0.83,-0.05 0.83,-0.05 0.83,-0.06 0.84,-0.05 0.83,-0.05 0.83,-0.05 0.83,-0.06 0.83,-0.05 0.84,-0.05 0.83,-0.05 0.83,-0.06 0.83,-0.05 0.83,-0.05 0.84,-0.05 0.83,-0.06 0.83,-0.05 0.83,-0.05 0.83,-0.06 0.84,-0.05 0.83,-0.05 0.83,-0.05 0.83,-0.06 0.83,-0.05 0.84,-0.05 0.83,-0.06 0.83,-0.05 0.83,-0.05 0.83,-0.06 0.84,-0.05 0.83,-0.05 0.83,-0.06 0.83,-0.05 0.83,-0.05 0.84,-0.05 0.83,-0.06 0.83,-0.05 0.83,-0.05 0.83,-0.06 0.84,-0.05 0.83,-0.05 0.83,-0.06 0.83,-0.05 0.83,-0.06 0.84,-0.05 0.83,-0.05 0.83,-0.06 0.83,-0.05 0.83,-0.05 0.84,-0.06 0.83,-0.05 0.83,-0.05 0.83,-0.06 0.83,-0.05 0.84,-0.06 0.83,-0.05 0.83,-0.05 0.83,-0.06 0.83,-0.05 0.84,-0.06 0.83,-0.05 0.83,-0.05 0.83,-0.06 0.83,-0.05 0.84,-0.06 0.83,-0.05 0.83,-0.05 0.83,-0.06 0.83,-0.05 0.84,-0.06 0.83,-0.05 0.83,-0.05 0.83,-0.06 0.83,-0.05 0.84,-0.06 0.83,-0.05 0.83,-0.06 0.83,-0.05 0.83,-0.06 0.84,-0.05 0.83,-0.05 0.83,-0.06 0.83,-0.05 0.83,-0.06 0.84,-0.05 0.83,-0.06 0.83,-0.05 0.83,-0.06 0.83,-0.05 0.84,-0.06 0.83,-0.05 0.83,-0.06 0.83,-0.05 0.83,-0.06 0.84,-0.05 0.83,-0.06 0.83,-0.05 0.83,-0.06 0.83,-0.05 0.84,-0.06 0.83,-0.05 0.83,-0.06 0.83,-0.05 0.83,-0.06 0.84,-0.05 0.83,-0.06 0.83,-0.05 0.83,-0.06 0.83,-0.05 0.84,-0.06 0.83,-0.06 0.83,-0.05 0.83,-0.06 0.83,-0.05 0.84,-0.06 0.83,-0.05 0.83,-0.06 0.83,-0.05 0.83,-0.06 0.84,-0.06 0.83,-0.05 0.83,-0.06 0.83,-0.05 0.83,-0.06 0.84,-0.05 0.83,-0.06 0.83,-0.06 0.83,-0.05 0.83,-0.06 0.84,-0.05 0.83,-0.06 0.83,-0.06 0.83,-0.05 0.83,-0.06 0.84,-0.05 0.83,-0.06 0.83,-0.06 0.83,-0.05 0.83,-0.06 0.84,-0.06 0.83,-0.05 0.83,-0.06 0.83,-0.05 0.83,-0.06 0.84,-0.06 0.83,-0.05 0.83,-0.06 0.83,-0.06 0.83,-0.05 0.84,-0.06 0.83,-0.06 0.83,-0.05 0.83,-0.06 0.83,-0.06 0.84,-0.05 0.83,-0.06 0.83,-0.06 0.83,-0.05 0.83,-0.06 0.84,-0.06 0.83,-0.05 0.83,-0.06 0.83,-0.06 0.83,-0.05 0.84,-0.06 0.83,-0.06 0.83,-0.06 0.83,-0.05 0.83,-0.06 0.84,-0.06 0.83,-0.05 0.83,-0.06 0.83,-0.06 0.83,-0.06 0.84,-0.05 0.83,-0.06 0.83,-0.06 0.83,-0.06 0.83,-0.05 0.84,-0.06 0.83,-0.06 0.83,-0.06 0.83,-0.05 0.83,-0.06 0.84,-0.06 0.83,-0.06 0.83,-0.05 0.83,-0.06 0.83,-0.06 0.84,-0.06 0.83,-0.06 0.83,-0.05 0.83,-0.06 0.83,-0.06 0.84,-0.06 0.83,-0.05 0.83,-0.06 0.83,-0.06 0.83,-0.06 0.84,-0.06 0.83,-0.05 0.83,-0.06 0.83,-0.06 0.83,-0.06 0.84,-0.06 0.83,-0.06 0.83,-0.05 0.83,-0.06 0.83,-0.06 0.84,-0.06 0.83,-0.06 0.83,-0.06 0.83,-0.05 0.83,-0.06 0.84,-0.06 0.83,-0.06 0.83,-0.06 0.83,-0.06 0.83,-0.06 0.84,-0.05 0.83,-0.06 0.83,-0.06 0.83,-0.06 0.83,-0.06 0.84,-0.06 0.83,-0.06 0.83,-0.06 0.83,-0.06 0.83,-0.05 0.84,-0.06 0.83,-0.06 0.83,-0.06 0.83,-0.06 0.83,-0.06 0.84,-0.06 0.83,-0.06 0.83,-0.06 0.83,-0.06 0.83,-0.06 0.84,-0.06 0.83,-0.05 0.83,-0.06 0.83,-0.06 0.83,-0.06 0.84,-0.06 0.83,-0.06 0.83,-0.06 0.83,-0.06 0.83,-0.06 0.84,-0.06 0.83,-0.06 0.83,-0.06 0.83,-0.06 0.83,-0.06 0.84,-0.06 0.83,-0.06 0.83,-0.06"
       id="asvg1SVG-plot-3703" />
  </g>
  <text
     xml:space="preserve"
     style="font-style:normal;font-weight:normal;font-size:40px;line-height:125%;font-family:sans-serif;letter-spacing:0px;word-spacing:0px;fill:#000000;fill-opacity:1;stroke:none;stroke-width:1px;stroke-linecap:butt;stroke-linejoin:miter;stroke-opacity:1"
     x="626.23254"
     y="179.42038"
     id="text3754"><tspan
       sodipodi:role="line"
       id="tspan3752"
       x="626.23254"
       y="179.42038">2<tspan
   style="font-size:64.99999762%;baseline-shift:super"
   id="tspan240">x</tspan></tspan></text>
  <flowRoot
     xml:space="preserve"
     id="flowRoot3756"
     style="font-style:normal;font-weight:normal;font-size:40px;line-height:125%;font-family:sans-serif;letter-spacing:0px;word-spacing:0px;fill:#000000;fill-opacity:1;stroke:none;stroke-width:1px;stroke-linecap:butt;stroke-linejoin:miter;stroke-opacity:1"
     transform="translate(75.571523,-44.444021)"><flowRegion
       id="flowRegion3758"><rect
         id="rect3760"
         width="264.40677"
         height="47.033897"
         x="508.47458"
         y="144.91525" /></flowRegion><flowPara
       id="flowPara3762">x<flowSpan
   style="font-size:65%;baseline-shift:super"
   id="flowSpan246">16</flowSpan></flowPara></flowRoot>  <path
     style="fill:#cd00cd;fill-opacity:1;fill-rule:evenodd;stroke:#cd00cd;stroke-width:1.5;stroke-linecap:butt;stroke-linejoin:miter;stroke-miterlimit:4;stroke-dasharray:none;stroke-opacity:1"
     d="M 560.80883,237.89495 H 610.3851"
     id="path3764"
     inkscape:connector-curvature="0" />
  <path
     inkscape:connector-curvature="0"
     id="path4571"
     d="M 560.80883,163.89495 H 610.3851"
     style="fill:#cd00cd;fill-opacity:1;fill-rule:evenodd;stroke:#165a71;stroke-width:1.5;stroke-linecap:butt;stroke-linejoin:miter;stroke-miterlimit:4;stroke-dasharray:none;stroke-opacity:1" />
  <text
     id="text252"
     y="247.42038"
     x="626.23254"
     style="font-style:normal;font-weight:normal;font-size:40px;line-height:125%;font-family:sans-serif;letter-spacing:0px;word-spacing:0px;fill:#000000;fill-opacity:1;stroke:none;stroke-width:1px;stroke-linecap:butt;stroke-linejoin:miter;stroke-opacity:1"
     xml:space="preserve"><tspan
       y="247.42038"
       x="626.23254"
       id="tspan250"
       sodipodi:role="line">x<tspan
   id="tspan248"
   style="font-size:64.99999762%;baseline-shift:super">16</tspan></tspan></text>
  <flowRoot
     xml:space="preserve"
     id="flowRoot254"
     style="fill:black;stroke:none;stroke-opacity:1;stroke-width:1px;stroke-linejoin:miter;stroke-linecap:butt;fill-opacity:1;font-family:sans-serif;font-style:normal;font-weight:normal;font-size:40px;line-height:125%;letter-spacing:0px;word-spacing:0px"><flowRegion
       id="flowRegion256"><rect
         id="rect258"
         width="509.41013"
         height="375.42136"
         x="6.3202248"
         y="13.483146" /></flowRegion><flowPara
       id="flowPara260"></flowPara></flowRoot></svg>
