<?xml version="1.0" encoding="UTF-8" standalone="no"?>
<svg
   xmlns:dc="http://purl.org/dc/elements/1.1/"
   xmlns:cc="http://creativecommons.org/ns#"
   xmlns:rdf="http://www.w3.org/1999/02/22-rdf-syntax-ns#"
   xmlns:svg="http://www.w3.org/2000/svg"
   xmlns="http://www.w3.org/2000/svg"
   xmlns:sodipodi="http://sodipodi.sourceforge.net/DTD/sodipodi-0.dtd"
   xmlns:inkscape="http://www.inkscape.org/namespaces/inkscape"
   id="asvg1SVG"
   width="800"
   height="600"
   version="1.1"
   sodipodi:docname="x2_vs_x.svg"
   inkscape:version="0.92.3 (2405546, 2018-03-11)">
  <metadata
     id="metadata30">
    <rdf:RDF>
      <cc:Work
         rdf:about="">
        <dc:format>image/svg+xml</dc:format>
        <dc:type
           rdf:resource="http://purl.org/dc/dcmitype/StillImage" />
        <dc:title />
      </cc:Work>
    </rdf:RDF>
  </metadata>
  <defs
     id="defs28" />
  <sodipodi:namedview
     pagecolor="#ffffff"
     bordercolor="#666666"
     borderopacity="1"
     objecttolerance="10"
     gridtolerance="10"
     guidetolerance="10"
     inkscape:pageopacity="0"
     inkscape:pageshadow="2"
     inkscape:window-width="1304"
     inkscape:window-height="745"
     id="namedview26"
     showgrid="false"
     inkscape:zoom="0.79111111"
     inkscape:cx="225"
     inkscape:cy="340.92128"
     inkscape:window-x="54"
     inkscape:window-y="-8"
     inkscape:window-maximized="1"
     inkscape:current-layer="asvg1SVG" />
  <g
     id="g53"
     transform="translate(17.696629,-195.92697)">
    <rect
       style="fill:#ffffff;stroke:none"
       height="250"
       width="450"
       y="350"
       x="0"
       id="brdBg_asvg1" />
    <path
       style="fill:none;stroke:#dddddd;stroke-width:1;shape-rendering:crispEdges"
       inkscape:connector-curvature="0"
       id="path3"
       d="M 225,350 V 600 M 308.2,350 V 600 M 391.4,350 V 600 M 141.8,350 V 600 M 58.6,350 V 600 M 0,529 H 450 M 0,556 H 450 M 0,583 H 450 M 0,502 H 450 M 0,475 H 450 M 0,448 H 450 M 0,421 H 450 M 0,394 H 450 M 0,367 h 450" />
    <path
       style="fill:none;stroke:#165a71;stroke-width:1;shape-rendering:crispEdges"
       inkscape:connector-curvature="0"
       id="path5"
       d="M 0,529 H 450 M 225,350 v 250 m 83.2,-67.62 v -6.75 m 83.2,6.75 v -6.75 m -249.6,6.75 v -6.75 m -83.2,6.75 v -6.75 M 228.38,556 h -6.75 m 6.75,27 h -6.75 m 6.75,-81 h -6.75 m 6.75,-27 h -6.75 m 6.75,-27 h -6.75 m 6.75,-27 h -6.75 m 6.75,-27 h -6.75 m 6.75,-27 h -6.75" />
    <text
       font-weight="normal"
       class="intmath"
       style="font-weight:normal;font-size:13.5px;text-anchor:middle"
       y="546.5"
       x="308.20001"
       id="asvg1SVG-text-1028">2</text>
    <text
       font-weight="normal"
       class="intmath"
       style="font-weight:normal;font-size:13.5px;text-anchor:middle"
       y="546.5"
       x="391.39999"
       id="asvg1SVG-text-1029">4</text>
    <text
       font-weight="normal"
       class="intmath"
       style="font-weight:normal;font-size:13.5px;text-anchor:middle"
       y="546.5"
       x="141.8"
       id="asvg1SVG-text-1030">-2</text>
    <text
       font-weight="normal"
       class="intmath"
       style="font-weight:normal;font-size:13.5px;text-anchor:middle"
       y="546.5"
       x="58.599998"
       id="asvg1SVG-text-1031">-4</text>
    <text
       font-weight="normal"
       class="intmath"
       style="font-weight:normal;font-size:13.5px;text-anchor:end"
       y="506.5"
       x="218.25"
       id="asvg1SVG-text-1032">1</text>
    <text
       font-weight="normal"
       class="intmath"
       style="font-weight:normal;font-size:13.5px;text-anchor:end"
       y="479.5"
       x="218.25"
       id="asvg1SVG-text-1033">2</text>
    <text
       font-weight="normal"
       class="intmath"
       style="font-weight:normal;font-size:13.5px;text-anchor:end"
       y="452.5"
       x="218.25"
       id="asvg1SVG-text-1034">3</text>
    <text
       font-weight="normal"
       class="intmath"
       style="font-weight:normal;font-size:13.5px;text-anchor:end"
       y="425.5"
       x="218.25"
       id="asvg1SVG-text-1035">4</text>
    <text
       font-weight="normal"
       class="intmath"
       style="font-weight:normal;font-size:13.5px;text-anchor:end"
       y="398.5"
       x="218.25"
       id="asvg1SVG-text-1036">5</text>
    <text
       font-weight="normal"
       class="intmath"
       style="font-weight:normal;font-size:13.5px;text-anchor:end"
       y="371.5"
       x="218.25"
       id="asvg1SVG-text-1037">6</text>
    <text
       font-weight="normal"
       class="intmath"
       style="font-weight:normal;font-size:13.5px;text-anchor:end"
       y="560.5"
       x="218.25"
       id="asvg1SVG-text-1038">-1</text>
    <text
       font-weight="normal"
       class="intmath"
       style="font-weight:normal;font-size:13.5px;text-anchor:end"
       y="587.5"
       x="218.25"
       id="asvg1SVG-text-1039">-2</text>
    <text
       font-weight="normal"
       class="intmathItalic"
       style="font-weight:normal;font-size:16px;text-anchor:middle"
       y="522.25"
       x="440"
       id="asvg1SVGxAxVbl">x</text>
    <text
       font-weight="normal"
       class="intmathItalic"
       style="font-weight:normal;font-size:16px;text-anchor:start"
       y="364.5"
       x="231.75"
       id="asvg1SVGyAxVbl">y</text>
    <path
       style="fill:#555555;stroke:#555555"
       inkscape:connector-curvature="0"
       id="xaxisArr"
       d="m 450,529 -12,-3 v 7 z" />
    <path
       style="fill:#555555;stroke:#555555"
       inkscape:connector-curvature="0"
       id="yaxisArr"
       d="m 225,350 -3,12 h 7 z" />
    <path
       style="vector-effect:non-scaling-stroke;fill:none;fill-opacity:1;stroke:#165a71;stroke-width:1.5;stroke-opacity:1"
       inkscape:connector-curvature="0"
       d="m 102.82,296.1 0.83,3.16 0.83,3.14 0.84,3.12 0.83,3.09 0.83,3.08 0.83,3.05 0.83,3.03 0.84,3.01 0.83,2.99 0.83,2.97 0.83,2.94 0.83,2.93 0.84,2.9 0.83,2.88 0.83,2.86 0.83,2.84 0.83,2.81 0.84,2.79 0.83,2.78 0.83,2.75 0.83,2.73 0.83,2.7 0.84,2.69 0.83,2.66 0.83,2.65 0.83,2.62 0.83,2.6 0.84,2.58 0.83,2.55 0.83,2.54 0.83,2.51 0.83,2.49 0.84,2.47 0.83,2.45 0.83,2.43 0.83,2.4 0.83,2.39 0.84,2.36 0.83,2.34 0.83,2.32 0.83,2.29 0.83,2.28 0.84,2.25 0.83,2.24 0.83,2.21 0.83,2.19 0.83,2.16 0.84,2.15 0.83,2.12 0.83,2.11 0.83,2.08 0.83,2.06 0.84,2.04 0.83,2.01 0.83,2 0.83,1.97 0.83,1.95 0.84,1.93 0.83,1.91 0.83,1.89 0.83,1.86 0.83,1.84 0.84,1.83 0.83,1.8 0.83,1.78 0.83,1.75 0.83,1.74 0.84,1.71 0.83,1.69 0.83,1.68 0.83,1.64 0.83,1.63 0.84,1.61 0.83,1.58 0.83,1.57 0.83,1.54 0.83,1.52 0.84,1.49 0.83,1.48 0.83,1.46 0.83,1.43 0.83,1.41 0.84,1.39 0.83,1.37 0.83,1.35 0.83,1.32 0.83,1.3 0.84,1.29 0.83,1.26 0.83,1.23 0.83,1.22 0.83,1.2 0.84,1.17 0.83,1.15 0.83,1.13 0.83,1.11 0.83,1.09 0.84,1.07 0.83,1.04 0.83,1.02 0.83,1.01 0.83,0.98 0.84,0.95 0.83,0.94 0.83,0.91 0.83,0.9 0.83,0.87 0.84,0.85 0.83,0.83 0.83,0.8 0.83,0.79 0.83,0.76 0.84,0.74 0.83,0.73 0.83,0.69 0.83,0.68 0.83,0.66 0.84,0.63 0.83,0.61 0.83,0.59 0.83,0.57 0.83,0.55 0.84,0.53 0.83,0.5 0.83,0.48 0.83,0.46 0.83,0.44 0.84,0.42 0.83,0.4 0.83,0.37 0.83,0.36 0.83,0.33 0.84,0.31 0.83,0.29 0.83,0.26 0.83,0.25 0.83,0.22 0.84,0.2 0.83,0.18 0.83,0.16 0.83,0.14 0.83,0.12 0.84,0.09 0.83,0.07 0.83,0.05 0.83,0.03 0.79,0.01 0.84,-0.01 0.83,-0.04 0.83,-0.05 0.83,-0.08 0.83,-0.1 0.84,-0.12 0.83,-0.14 0.83,-0.17 0.83,-0.18 0.83,-0.21 0.84,-0.23 0.83,-0.25 0.83,-0.27 0.83,-0.3 0.83,-0.31 0.84,-0.34 0.83,-0.36 0.83,-0.38 0.83,-0.4 0.83,-0.42 0.84,-0.45 0.83,-0.46 0.83,-0.49 0.83,-0.51 0.83,-0.53 0.84,-0.56 0.83,-0.57 0.83,-0.6 0.83,-0.62 0.83,-0.63 0.84,-0.67 0.83,-0.68 0.83,-0.7 0.83,-0.73 0.83,-0.75 0.84,-0.76 0.83,-0.8 0.83,-0.81 0.83,-0.83 0.83,-0.86 0.84,-0.87 0.83,-0.9 0.83,-0.92 0.83,-0.94 0.83,-0.97 0.84,-0.98 0.83,-1.01 0.83,-1.03 0.83,-1.05 0.83,-1.07 0.84,-1.09 0.83,-1.12 0.83,-1.13 0.83,-1.16 0.83,-1.18 0.84,-1.2 0.83,-1.22 0.83,-1.25 0.83,-1.26 0.83,-1.29 0.84,-1.31 0.83,-1.33 0.83,-1.35 0.83,-1.38 0.83,-1.39 0.84,-1.42 0.83,-1.44 0.83,-1.46 0.83,-1.48 0.83,-1.5 0.84,-1.53 0.83,-1.54 0.83,-1.57 0.83,-1.59 0.83,-1.61 0.84,-1.63 0.83,-1.66 0.83,-1.68 0.83,-1.69 0.83,-1.72 0.84,-1.74 0.83,-1.77 0.83,-1.78 0.83,-1.81 0.83,-1.82 0.84,-1.85 0.83,-1.87 0.83,-1.9 0.83,-1.91 0.83,-1.93 0.84,-1.96 0.83,-1.98 0.83,-2 0.83,-2.02 0.83,-2.05 0.84,-2.06 0.83,-2.09 0.83,-2.1 0.83,-2.13 0.83,-2.16 0.84,-2.17 0.83,-2.19 0.83,-2.22 0.83,-2.24 0.83,-2.26 0.84,-2.28 0.83,-2.3 0.83,-2.32 0.83,-2.35 0.83,-2.37 0.84,-2.39 0.83,-2.41 0.83,-2.43 0.83,-2.45 0.83,-2.48 0.84,-2.5 0.83,-2.51 0.83,-2.54 0.83,-2.57 0.83,-2.58 0.84,-2.6 0.83,-2.63 0.83,-2.65 0.83,-2.67 0.83,-2.69 0.84,-2.71 0.83,-2.74 0.83,-2.75 0.83,-2.78 0.83,-2.8 0.84,-2.82 0.83,-2.84 0.83,-2.87 0.83,-2.88 0.83,-2.91 0.84,-2.93 0.83,-2.95 0.83,-2.97 0.83,-3 0.83,-3.01 0.84,-3.04 0.83,-3.06 0.83,-3.08 0.83,-3.1 0.83,-3.12 0.84,-3.15"
       id="asvg1SVG-plot-1040" />
    <path
       style="vector-effect:non-scaling-stroke;fill:none;fill-opacity:1;stroke:#cc00cc;stroke-width:1.5;stroke-opacity:1"
       inkscape:connector-curvature="0"
       d="m 32.43,653.98 0.84,-0.54 0.83,-0.54 0.83,-0.54 0.83,-0.54 0.83,-0.54 0.84,-0.54 0.83,-0.54 0.83,-0.54 0.83,-0.54 0.83,-0.54 0.84,-0.54 0.83,-0.54 0.83,-0.54 0.83,-0.54 0.83,-0.54 0.84,-0.54 0.83,-0.54 0.83,-0.54 0.83,-0.54 0.83,-0.54 0.84,-0.54 0.83,-0.54 0.83,-0.54 0.83,-0.54 0.83,-0.54 0.84,-0.54 0.83,-0.54 0.83,-0.54 0.83,-0.54 0.83,-0.54 0.84,-0.54 0.83,-0.54 0.83,-0.54 0.83,-0.54 0.83,-0.54 0.84,-0.54 0.83,-0.54 0.83,-0.54 0.83,-0.54 0.83,-0.54 0.84,-0.54 0.83,-0.54 0.83,-0.54 0.83,-0.54 0.83,-0.54 0.84,-0.54 0.83,-0.54 0.83,-0.54 0.83,-0.54 0.83,-0.54 0.84,-0.54 0.83,-0.54 0.83,-0.54 0.83,-0.54 0.83,-0.54 0.84,-0.54 0.83,-0.54 0.83,-0.54 0.83,-0.54 0.83,-0.54 0.84,-0.54 0.83,-0.54 0.83,-0.54 0.83,-0.54 0.83,-0.54 0.84,-0.54 0.83,-0.54 0.83,-0.54 0.83,-0.54 0.83,-0.54 0.84,-0.54 0.83,-0.54 0.83,-0.54 0.83,-0.54 0.83,-0.54 0.84,-0.54 0.83,-0.54 0.83,-0.54 0.83,-0.54 0.83,-0.54 0.84,-0.54 0.83,-0.54 0.83,-0.54 0.83,-0.54 0.83,-0.54 0.84,-0.54 0.83,-0.54 0.83,-0.54 0.83,-0.54 0.83,-0.54 0.84,-0.54 0.83,-0.54 0.83,-0.54 0.83,-0.54 0.83,-0.54 0.84,-0.54 0.83,-0.54 0.83,-0.54 0.83,-0.54 0.83,-0.54 0.84,-0.54 0.83,-0.54 0.83,-0.54 0.83,-0.54 0.83,-0.54 0.84,-0.54 0.83,-0.54 0.83,-0.54 0.83,-0.54 0.83,-0.54 0.84,-0.54 0.83,-0.54 0.83,-0.54 0.83,-0.54 0.83,-0.54 0.84,-0.54 0.83,-0.54 0.83,-0.54 0.83,-0.54 0.83,-0.54 0.84,-0.54 0.83,-0.54 0.83,-0.54 0.83,-0.54 0.83,-0.54 0.84,-0.54 0.83,-0.54 0.83,-0.54 0.83,-0.54 0.83,-0.54 0.84,-0.54 0.83,-0.54 0.83,-0.54 0.83,-0.54 0.83,-0.54 0.84,-0.54 0.83,-0.54 0.83,-0.54 0.83,-0.54 0.83,-0.54 0.84,-0.54 0.83,-0.54 0.83,-0.54 0.83,-0.54 0.83,-0.54 0.84,-0.54 0.83,-0.54 0.83,-0.54 0.83,-0.54 0.83,-0.54 0.84,-0.54 0.83,-0.54 0.83,-0.54 0.83,-0.54 0.83,-0.54 0.84,-0.54 0.83,-0.54 0.83,-0.54 0.83,-0.54 0.83,-0.54 0.84,-0.54 0.83,-0.54 0.83,-0.54 0.83,-0.54 0.83,-0.54 0.84,-0.54 0.83,-0.54 0.83,-0.54 0.83,-0.54 0.83,-0.54 0.84,-0.54 0.83,-0.54 0.83,-0.54 0.83,-0.54 0.83,-0.54 0.84,-0.54 0.83,-0.54 0.83,-0.54 0.83,-0.54 0.83,-0.54 0.84,-0.54 0.83,-0.54 0.83,-0.54 0.83,-0.54 0.83,-0.54 0.84,-0.54 0.83,-0.54 0.83,-0.54 0.83,-0.54 0.83,-0.54 0.84,-0.54 0.83,-0.54 0.83,-0.54 0.83,-0.54 0.83,-0.54 0.84,-0.54 0.83,-0.54 0.83,-0.54 0.83,-0.54 0.83,-0.54 0.84,-0.54 0.83,-0.54 0.83,-0.54 0.83,-0.54 0.83,-0.54 0.84,-0.54 0.83,-0.54 0.83,-0.54 0.83,-0.54 0.83,-0.54 0.84,-0.54 0.83,-0.54 0.83,-0.54 0.83,-0.54 0.83,-0.54 0.84,-0.54 0.83,-0.54 0.83,-0.54 0.83,-0.54 0.83,-0.54 0.84,-0.54 0.83,-0.54 0.83,-0.54 0.83,-0.54 0.83,-0.54 0.84,-0.54 0.83,-0.54 0.83,-0.54 0.83,-0.54 0.83,-0.54 0.84,-0.54 0.79,-0.51 0.83,-0.54 0.83,-0.54 0.83,-0.54 0.83,-0.54 0.84,-0.54 0.83,-0.54 0.83,-0.54 0.83,-0.54 0.83,-0.54 0.84,-0.54 0.83,-0.54 0.83,-0.54 0.83,-0.54 0.83,-0.54 0.84,-0.54 0.83,-0.54 0.83,-0.54 0.83,-0.54 0.83,-0.54 0.84,-0.54 0.83,-0.54 0.83,-0.54 0.83,-0.54 0.83,-0.54 0.84,-0.54 0.83,-0.54 0.83,-0.54 0.83,-0.54 0.83,-0.54 0.84,-0.54 0.83,-0.54 0.83,-0.54 0.83,-0.54 0.83,-0.54 0.84,-0.54 0.83,-0.54 0.83,-0.54 0.83,-0.54 0.83,-0.54 0.84,-0.54 0.83,-0.54 0.83,-0.54 0.83,-0.54 0.83,-0.54 0.84,-0.54 0.83,-0.54 0.83,-0.54 0.83,-0.54 0.83,-0.54 0.84,-0.54 0.83,-0.54 0.83,-0.54 0.83,-0.54 0.83,-0.54 0.84,-0.54 0.83,-0.54 0.83,-0.54 0.83,-0.54 0.83,-0.54 0.84,-0.54 0.83,-0.54 0.83,-0.54 0.83,-0.54 0.83,-0.54 0.84,-0.54 0.83,-0.54 0.83,-0.54 0.83,-0.54 0.83,-0.54 0.84,-0.54 0.83,-0.54 0.83,-0.54 0.83,-0.54 0.83,-0.54 0.84,-0.54 0.83,-0.54 0.83,-0.54 0.83,-0.54 0.83,-0.54 0.84,-0.54 0.83,-0.54 0.83,-0.54 0.83,-0.54 0.83,-0.54 0.84,-0.54 0.83,-0.54 0.83,-0.54 0.83,-0.54 0.83,-0.54 0.84,-0.54 0.83,-0.54 0.83,-0.54 0.83,-0.54 0.83,-0.54 0.84,-0.54 0.83,-0.54 0.83,-0.54 0.83,-0.54 0.83,-0.54 0.84,-0.54 0.83,-0.54 0.83,-0.54 0.83,-0.54 0.83,-0.54 0.84,-0.54 0.83,-0.54 0.83,-0.54 0.83,-0.54 0.83,-0.54 0.84,-0.54 0.83,-0.54 0.83,-0.54 0.83,-0.54 0.83,-0.54 0.84,-0.54 0.83,-0.54 0.83,-0.54 0.83,-0.54 0.83,-0.54 0.84,-0.54 0.83,-0.54 0.83,-0.54 0.83,-0.54 0.83,-0.54 0.84,-0.54 0.83,-0.54 0.83,-0.54 0.83,-0.54 0.83,-0.54 0.84,-0.54 0.83,-0.54 0.83,-0.54 0.83,-0.54 0.83,-0.54 0.84,-0.54 0.83,-0.54 0.83,-0.54 0.83,-0.54 0.83,-0.54 0.84,-0.54 0.83,-0.54 0.83,-0.54 0.83,-0.54 0.83,-0.54 0.84,-0.54 0.83,-0.54 0.83,-0.54 0.83,-0.54 0.83,-0.54 0.84,-0.54 0.83,-0.54 0.83,-0.54 0.83,-0.54 0.83,-0.54 0.84,-0.54 0.83,-0.54 0.83,-0.54 0.83,-0.54 0.83,-0.54 0.84,-0.54 0.83,-0.54 0.83,-0.54 0.83,-0.54 0.83,-0.54 0.84,-0.54 0.83,-0.54 0.83,-0.54 0.83,-0.54 0.83,-0.54 0.84,-0.54 0.83,-0.54 0.83,-0.54 0.83,-0.54 0.83,-0.54 0.84,-0.54 0.83,-0.54 0.83,-0.54 0.83,-0.54 0.83,-0.54 0.84,-0.54 0.83,-0.54 0.83,-0.54 0.83,-0.54 0.83,-0.54 0.84,-0.54 0.83,-0.54 0.83,-0.54 0.83,-0.54 0.83,-0.54 0.84,-0.54 0.83,-0.54 0.83,-0.54 0.83,-0.54 0.83,-0.54 0.84,-0.54 0.83,-0.54 0.83,-0.54 0.83,-0.54 0.83,-0.54 0.84,-0.54 0.83,-0.54 0.83,-0.54 0.83,-0.54 0.83,-0.54 0.84,-0.54 0.83,-0.54 0.83,-0.54 0.83,-0.54 0.83,-0.54 0.84,-0.54 0.83,-0.54 0.83,-0.54 0.83,-0.54 0.83,-0.54 0.84,-0.54 0.83,-0.54 0.83,-0.54 0.83,-0.54 0.83,-0.54 0.84,-0.54 0.83,-0.54 0.83,-0.54 0.83,-0.54 0.83,-0.54 0.84,-0.54 0.83,-0.54 0.83,-0.54 0.83,-0.54 0.83,-0.54 0.84,-0.54 0.83,-0.54 0.83,-0.54 0.83,-0.54 0.83,-0.54 0.84,-0.54 0.83,-0.54 0.83,-0.54 0.83,-0.54 0.83,-0.54 0.84,-0.54 0.83,-0.54 0.83,-0.54 0.83,-0.54 0.83,-0.54 0.84,-0.54 0.83,-0.54 0.83,-0.54 0.83,-0.54 0.83,-0.54"
       id="asvg1SVG-plot-1041" />
  </g>
  <text
     xml:space="preserve"
     style="font-style:normal;font-weight:normal;font-size:40px;line-height:125%;font-family:sans-serif;letter-spacing:0px;word-spacing:0px;fill:#000000;fill-opacity:1;stroke:none;stroke-width:1px;stroke-linecap:butt;stroke-linejoin:miter;stroke-opacity:1"
     x="523.00635"
     y="68.40123"
     id="text3754"><tspan
       sodipodi:role="line"
       id="tspan3752"
       x="523.00635"
       y="68.40123">x<tspan
   style="font-size:65%;baseline-shift:super"
   id="tspan52">2</tspan></tspan></text>
  <path
     style="fill:#cd00cd;fill-opacity:1;fill-rule:evenodd;stroke:#cd00cd;stroke-width:1.5;stroke-linecap:butt;stroke-linejoin:miter;stroke-miterlimit:4;stroke-dasharray:none;stroke-opacity:1"
     d="m 457.58265,126.87579 h 49.57627"
     id="path3764"
     inkscape:connector-curvature="0" />
  <path
     inkscape:connector-curvature="0"
     id="path4571"
     d="m 457.58265,52.875794 h 49.57627"
     style="fill:#cd00cd;fill-opacity:1;fill-rule:evenodd;stroke:#165a71;stroke-width:1.5;stroke-linecap:butt;stroke-linejoin:miter;stroke-miterlimit:4;stroke-dasharray:none;stroke-opacity:1" />
  <text
     id="text58"
     y="136.40123"
     x="523.00635"
     style="font-style:normal;font-weight:normal;font-size:40px;line-height:125%;font-family:sans-serif;letter-spacing:0px;word-spacing:0px;fill:#000000;fill-opacity:1;stroke:none;stroke-width:1px;stroke-linecap:butt;stroke-linejoin:miter;stroke-opacity:1"
     xml:space="preserve"><tspan
       y="136.40123"
       x="523.00635"
       id="tspan56"
       sodipodi:role="line">x<tspan
   id="tspan54"
   style="font-size:64.99999762%;baseline-shift:super" /></tspan></text>
</svg>
