<?xml version="1.0" encoding="UTF-8" standalone="no"?>
<svg
   xmlns:dc="http://purl.org/dc/elements/1.1/"
   xmlns:cc="http://creativecommons.org/ns#"
   xmlns:rdf="http://www.w3.org/1999/02/22-rdf-syntax-ns#"
   xmlns:svg="http://www.w3.org/2000/svg"
   xmlns="http://www.w3.org/2000/svg"
   xmlns:sodipodi="http://sodipodi.sourceforge.net/DTD/sodipodi-0.dtd"
   xmlns:inkscape="http://www.inkscape.org/namespaces/inkscape"
   id="asvg1SVG"
   width="800"
   height="600"
   version="1.1"
   sodipodi:docname="x3-ii.svg"
   inkscape:version="0.92.3 (2405546, 2018-03-11)">
  <metadata
     id="metadata4631">
    <rdf:RDF>
      <cc:Work
         rdf:about="">
        <dc:format>image/svg+xml</dc:format>
        <dc:type
           rdf:resource="http://purl.org/dc/dcmitype/StillImage" />
        <dc:title></dc:title>
      </cc:Work>
    </rdf:RDF>
  </metadata>
  <defs
     id="defs4629" />
  <sodipodi:namedview
     pagecolor="#ffffff"
     bordercolor="#666666"
     borderopacity="1"
     objecttolerance="10"
     gridtolerance="10"
     guidetolerance="10"
     inkscape:pageopacity="0"
     inkscape:pageshadow="2"
     inkscape:window-width="1304"
     inkscape:window-height="745"
     id="namedview4627"
     showgrid="false"
     inkscape:zoom="0.78666667"
     inkscape:cx="262.8529"
     inkscape:cy="252.41341"
     inkscape:window-x="54"
     inkscape:window-y="-8"
     inkscape:window-maximized="1"
     inkscape:current-layer="asvg1SVG" />
  <g
     id="g4654"
     transform="translate(27.966102,-202.11864)">
    <rect
       style="fill:#ffffff;stroke:none"
       height="300"
       width="400"
       y="300"
       x="0"
       id="brdBg_asvg1" />
    <path
       style="fill:none;stroke:#dddddd;stroke-width:1;shape-rendering:crispEdges"
       inkscape:connector-curvature="0"
       id="path4604"
       d="M 200,300 V 600 M 245.75,300 V 600 M 291.5,300 V 600 M 337.25,300 V 600 M 383,300 V 600 M 154.25,300 V 600 M 108.5,300 V 600 M 62.75,300 V 600 M 17,300 V 600 M 0,576.51 H 400 M 0,511.63 H 400 M 0,446.76 H 400 M 0,381.88 H 400 M 0,317 h 400" />
    <path
       style="fill:none;stroke:#165a71;stroke-width:1;shape-rendering:crispEdges"
       inkscape:connector-curvature="0"
       id="path4606"
       d="M 0,576.51 H 400 M 200,300 v 300 m 45.75,-20.49 v -6 m 45.75,6 v -6 m 45.75,6 v -6 m 45.75,6 v -6 m -228.75,6 v -6 m -45.75,6 v -6 m -45.75,6 v -6 m -45.75,6 v -6 m 186,-61.88 h -6 m 6,-64.87 h -6 m 6,-64.88 h -6 M 203,317 h -6" />
    <text
       font-weight="normal"
       class="intmath"
       style="font-weight:normal;font-size:12px;text-anchor:middle"
       y="592.51001"
       x="245.75"
       id="asvg1SVG-text-2169">10</text>
    <text
       font-weight="normal"
       class="intmath"
       style="font-weight:normal;font-size:12px;text-anchor:middle"
       y="592.51001"
       x="291.5"
       id="asvg1SVG-text-2170">20</text>
    <text
       font-weight="normal"
       class="intmath"
       style="font-weight:normal;font-size:12px;text-anchor:middle"
       y="592.51001"
       x="337.25"
       id="asvg1SVG-text-2171">30</text>
    <text
       font-weight="normal"
       class="intmath"
       style="font-weight:normal;font-size:12px;text-anchor:middle"
       y="592.51001"
       x="383"
       id="asvg1SVG-text-2172">40</text>
    <text
       font-weight="normal"
       class="intmath"
       style="font-weight:normal;font-size:12px;text-anchor:middle"
       y="592.51001"
       x="154.25"
       id="asvg1SVG-text-2173">-10</text>
    <text
       font-weight="normal"
       class="intmath"
       style="font-weight:normal;font-size:12px;text-anchor:middle"
       y="592.51001"
       x="108.5"
       id="asvg1SVG-text-2174">-20</text>
    <text
       font-weight="normal"
       class="intmath"
       style="font-weight:normal;font-size:12px;text-anchor:middle"
       y="592.51001"
       x="62.75"
       id="asvg1SVG-text-2175">-30</text>
    <text
       font-weight="normal"
       class="intmath"
       style="font-weight:normal;font-size:12px;text-anchor:middle"
       y="592.51001"
       x="17"
       id="asvg1SVG-text-2176">-40</text>
    <text
       font-weight="normal"
       class="intmath"
       style="font-weight:normal;font-size:12px;text-anchor:end"
       y="515.63"
       x="194"
       id="asvg1SVG-text-2177">10000</text>
    <text
       font-weight="normal"
       class="intmath"
       style="font-weight:normal;font-size:12px;text-anchor:end"
       y="450.76001"
       x="194"
       id="asvg1SVG-text-2178">20000</text>
    <text
       font-weight="normal"
       class="intmath"
       style="font-weight:normal;font-size:12px;text-anchor:end"
       y="385.88"
       x="194"
       id="asvg1SVG-text-2179">30000</text>
    <text
       font-weight="normal"
       class="intmath"
       style="font-weight:normal;font-size:12px;text-anchor:end"
       y="321"
       x="194"
       id="asvg1SVG-text-2180">40000</text>
    <text
       font-weight="normal"
       class="intmathItalic"
       style="font-weight:normal;font-size:16px;text-anchor:middle"
       y="570.51001"
       x="390"
       id="asvg1SVGxAxVbl">x</text>
    <text
       font-weight="normal"
       class="intmathItalic"
       style="font-weight:normal;font-size:16px;text-anchor:start"
       y="314"
       x="206"
       id="asvg1SVGyAxVbl">y</text>
    <path
       style="fill:#555555;stroke:#555555"
       inkscape:connector-curvature="0"
       id="xaxisArr"
       d="m 400,577 -12,-3 v 7 z" />
    <path
       style="fill:#555555;stroke:#555555"
       inkscape:connector-curvature="0"
       id="yaxisArr"
       d="m 200,300 -3,12 h 7 z" />
    <path
       style="vector-effect:non-scaling-stroke;fill:none;fill-opacity:1;stroke:#165a71;stroke-width:1.5;stroke-opacity:1"
       inkscape:connector-curvature="0"
       d="m 17,659.52 0.73,-4.07 0.73,-4.03 0.74,-3.99 0.73,-3.95 0.73,-3.92 0.73,-3.88 0.73,-3.83 0.74,-3.8 0.73,-3.77 0.73,-3.72 0.73,-3.69 0.73,-3.65 0.74,-3.61 0.73,-3.58 0.73,-3.54 0.73,-3.5 0.73,-3.46 0.74,-3.43 0.73,-3.39 0.73,-3.36 0.73,-3.32 0.73,-3.28 0.74,-3.25 0.73,-3.21 0.73,-3.18 0.73,-3.14 0.73,-3.11 0.74,-3.07 0.73,-3.04 0.73,-3 0.73,-2.97 0.73,-2.94 0.74,-2.9 0.73,-2.86 0.73,-2.83 0.73,-2.8 0.73,-2.77 0.74,-2.73 0.73,-2.7 0.73,-2.67 0.73,-2.63 0.73,-2.6 0.74,-2.57 0.73,-2.53 0.73,-2.51 0.73,-2.47 0.73,-2.44 0.74,-2.41 0.73,-2.37 0.73,-2.35 0.73,-2.31 0.73,-2.28 0.74,-2.26 0.73,-2.22 0.73,-2.19 0.73,-2.16 0.73,-2.13 0.74,-2.1 0.73,-2.07 0.73,-2.04 0.73,-2.01 0.73,-1.98 0.74,-1.95 0.73,-1.92 0.73,-1.9 0.73,-1.86 0.73,-1.84 0.74,-1.8 0.73,-1.78 0.73,-1.75 0.73,-1.73 0.73,-1.69 0.74,-1.67 0.73,-1.64 0.73,-1.61 0.73,-1.58 0.73,-1.56 0.74,-1.53 0.73,-1.51 0.73,-1.48 0.73,-1.45 0.73,-1.42 0.74,-1.4 0.73,-1.37 0.73,-1.35 0.73,-1.32 0.73,-1.3 0.74,-1.27 0.73,-1.24 0.73,-1.22 0.73,-1.2 0.73,-1.17 0.74,-1.15 0.73,-1.12 0.73,-1.1 0.73,-1.07 0.73,-1.05 0.74,-1.03 0.73,-1 0.73,-0.98 0.73,-0.95 0.73,-0.94 0.74,-0.91 0.73,-0.88 0.73,-0.87 0.73,-0.84 0.73,-0.82 0.74,-0.8 0.73,-0.77 0.73,-0.76 0.73,-0.73 0.73,-0.71 0.74,-0.69 0.73,-0.67 0.73,-0.64 0.73,-0.63 0.73,-0.61 0.74,-0.58 0.73,-0.56 0.73,-0.55 0.73,-0.52 0.73,-0.51 0.74,-0.48 0.73,-0.47 0.73,-0.44 0.73,-0.43 0.73,-0.41 0.74,-0.39 0.73,-0.36 0.73,-0.36 0.73,-0.33 0.73,-0.31 0.74,-0.3 0.73,-0.28 0.73,-0.26 0.73,-0.24 0.73,-0.22 0.74,-0.21 0.73,-0.19 0.73,-0.18 0.73,-0.15 0.73,-0.14 0.74,-0.12 0.73,-0.11 0.73,-0.09 0.73,-0.08 0.73,-0.06 0.74,-0.04 0.73,-0.03 0.73,-0.01 0.73,0.01 0.73,0.01 0.74,0.04 0.73,0.05 0.73,0.06 0.73,0.08 0.73,0.09 0.74,0.1 0.73,0.12 0.73,0.14 0.73,0.15 0.73,0.16 0.74,0.17 0.73,0.19 0.73,0.2 0.73,0.21 0.73,0.23 0.74,0.24 0.73,0.25 0.73,0.26 0.73,0.28 0.73,0.29 0.74,0.3 0.73,0.31 0.73,0.32 0.73,0.33 0.73,0.35 0.74,0.35 0.73,0.37 0.73,0.38 0.73,0.38 0.73,0.4 0.74,0.41 0.73,0.42 0.73,0.43 0.73,0.43 0.73,0.45 0.74,0.46 0.73,0.46 0.73,0.48 0.73,0.48 0.73,0.5 0.74,0.5 0.73,0.51 0.73,0.52 0.73,0.52 0.73,0.54 0.74,0.54 0.73,0.55 0.73,0.55 0.73,0.57 0.73,0.57 0.74,0.58 0.73,0.58 0.73,0.59 0.73,0.6 0.73,0.61 0.74,0.61 0.73,0.61 0.73,0.63 0.73,0.63 0.73,0.63 0.74,0.64 0.73,0.64 0.73,0.65 0.73,0.66 0.73,0.66 0.74,0.66 0.73,0.67 0.73,0.67 0.73,0.68 0.73,0.68 0.74,0.69 0.73,0.68 0.73,0.7 0.73,0.69 0.73,0.7 0.74,0.7 0.73,0.7 0.73,0.71 0.73,0.71 0.73,0.71 0.74,0.72 0.73,0.71 0.73,0.72 0.73,0.72 0.73,0.72 0.74,0.72 0.73,0.73 0.73,0.72 0.73,0.73 0.73,0.72 0.74,0.73 0.73,0.73 0.73,0.73 0.73,0.72 0.73,0.73 0.74,0.73 0.73,0.73 0.73,0.72 0.7,0.69 0.73,0.73 0.73,0.72 0.73,0.73 0.73,0.72 0.74,0.72 0.73,0.72 0.73,0.72 0.73,0.71 0.73,0.71 0.74,0.72 0.73,0.7 0.73,0.71 0.73,0.7 0.73,0.7 0.74,0.7 0.73,0.7 0.73,0.69 0.73,0.68 0.73,0.69 0.74,0.68 0.73,0.67 0.73,0.67 0.73,0.67 0.73,0.66 0.74,0.66 0.73,0.66 0.73,0.64 0.73,0.65 0.73,0.63 0.74,0.64 0.73,0.62 0.73,0.62 0.73,0.62 0.73,0.61 0.74,0.6 0.73,0.6 0.73,0.59 0.73,0.58 0.73,0.58 0.74,0.57 0.73,0.56 0.73,0.55 0.73,0.55 0.73,0.54 0.74,0.53 0.73,0.53 0.73,0.51 0.73,0.51 0.73,0.5 0.74,0.49 0.73,0.48 0.73,0.47 0.73,0.47 0.73,0.45 0.74,0.44 0.73,0.44 0.73,0.43 0.73,0.41 0.73,0.41 0.74,0.39 0.73,0.39 0.73,0.37 0.73,0.36 0.73,0.36 0.74,0.34 0.73,0.33 0.73,0.32 0.73,0.31 0.73,0.29 0.74,0.29 0.73,0.27 0.73,0.26 0.73,0.25 0.73,0.23 0.74,0.22 0.73,0.21 0.73,0.2 0.73,0.18 0.73,0.17 0.74,0.16 0.73,0.15 0.73,0.13 0.73,0.11 0.73,0.1 0.74,0.09 0.73,0.07 0.73,0.06 0.73,0.05 0.73,0.03 0.74,0.01 h 0.73 l 0.73,-0.02 0.73,-0.03 0.73,-0.05 0.74,-0.06 0.73,-0.08 0.73,-0.09 0.73,-0.11 0.73,-0.13 0.74,-0.15 0.73,-0.16 0.73,-0.18 0.73,-0.19 0.73,-0.21 0.74,-0.23 0.73,-0.25 0.73,-0.27 0.73,-0.28 0.73,-0.3 0.74,-0.32 0.73,-0.34 0.73,-0.35 0.73,-0.38 0.73,-0.39 0.74,-0.41 0.73,-0.44 0.73,-0.45 0.73,-0.47 0.73,-0.49 0.74,-0.51 0.73,-0.53 0.73,-0.55 0.73,-0.57 0.73,-0.59 0.74,-0.61 0.73,-0.63 0.73,-0.66 0.73,-0.67 0.73,-0.7 0.74,-0.71 0.73,-0.74 0.73,-0.76 0.73,-0.78 0.73,-0.81 0.74,-0.82 0.73,-0.85 0.73,-0.87 0.73,-0.89 0.73,-0.92 0.74,-0.94 0.73,-0.96 0.73,-0.99 0.73,-1.01 0.73,-1.03 0.74,-1.06 0.73,-1.08 0.73,-1.1 0.73,-1.13 0.73,-1.15 0.74,-1.18 0.73,-1.2 0.73,-1.23 0.73,-1.25 0.73,-1.28 0.74,-1.31 0.73,-1.32 0.73,-1.36 0.73,-1.38 0.73,-1.4 0.74,-1.44 0.73,-1.46 0.73,-1.48 0.73,-1.51 0.73,-1.54 0.74,-1.57 0.73,-1.59 0.73,-1.62 0.73,-1.65 0.73,-1.67 0.74,-1.7 0.73,-1.74 0.73,-1.75 0.73,-1.79 0.73,-1.82 0.74,-1.84 0.73,-1.87 0.73,-1.9 0.73,-1.94 0.73,-1.96 0.74,-1.98 0.73,-2.02 0.73,-2.05 0.73,-2.08 0.73,-2.11 0.74,-2.14 0.73,-2.17 0.73,-2.19 0.73,-2.23 0.73,-2.26 0.74,-2.3 0.73,-2.32 0.73,-2.35 0.73,-2.39 0.73,-2.41 0.74,-2.45 0.73,-2.48 0.73,-2.52 0.73,-2.54 0.73,-2.58 0.74,-2.61 0.73,-2.64 0.73,-2.68 0.73,-2.7 0.73,-2.75 0.74,-2.77 0.73,-2.81 0.73,-2.84 0.73,-2.88 0.73,-2.91 0.74,-2.94 0.73,-2.98 0.73,-3.01 0.73,-3.05 0.73,-3.08 0.74,-3.12 0.73,-3.15 0.73,-3.19 0.73,-3.22 0.73,-3.26 0.74,-3.29 0.73,-3.33 0.73,-3.37 0.73,-3.4 0.73,-3.44 0.74,-3.48 0.73,-3.51 0.73,-3.55 0.73,-3.58 0.73,-3.63 0.74,-3.66 0.73,-3.69 0.73,-3.74 0.73,-3.77 0.73,-3.81 0.74,-3.85 0.73,-3.89 0.73,-3.93 0.73,-3.96 0.73,-4"
       id="asvg1SVG-plot-2181" />
    <path
       style="vector-effect:non-scaling-stroke;fill:none;fill-opacity:1;stroke:#cc00cc;stroke-width:1.5;stroke-opacity:1"
       inkscape:connector-curvature="0"
       d="m 90.09,666.47 0.73,-1.79 0.73,-1.76 0.74,-1.74 0.73,-1.71 0.73,-1.69 0.73,-1.67 0.73,-1.64 0.74,-1.63 0.73,-1.6 0.73,-1.57 0.73,-1.56 0.73,-1.53 0.74,-1.51 0.73,-1.49 0.73,-1.47 0.73,-1.44 0.73,-1.43 0.74,-1.4 0.73,-1.38 0.73,-1.36 0.73,-1.34 0.73,-1.32 0.74,-1.3 0.73,-1.28 0.73,-1.26 0.73,-1.24 0.73,-1.22 0.74,-1.2 0.73,-1.17 0.73,-1.17 0.73,-1.14 0.73,-1.12 0.74,-1.1 0.73,-1.09 0.73,-1.06 0.73,-1.05 0.73,-1.03 0.74,-1.01 0.73,-1 0.73,-0.97 0.73,-0.96 0.73,-0.94 0.74,-0.93 0.73,-0.9 0.73,-0.89 0.73,-0.88 0.73,-0.85 0.74,-0.84 0.73,-0.83 0.73,-0.8 0.73,-0.8 0.73,-0.77 0.74,-0.76 0.73,-0.75 0.73,-0.73 0.73,-0.71 0.73,-0.7 0.74,-0.68 0.73,-0.67 0.73,-0.66 0.73,-0.64 0.73,-0.63 0.74,-0.61 0.73,-0.6 0.73,-0.58 0.73,-0.57 0.73,-0.56 0.74,-0.55 0.73,-0.53 0.73,-0.52 0.73,-0.5 0.73,-0.49 0.74,-0.48 0.73,-0.47 0.73,-0.46 0.73,-0.44 0.73,-0.44 0.74,-0.42 0.73,-0.41 0.73,-0.39 0.73,-0.39 0.73,-0.38 0.74,-0.36 0.73,-0.36 0.73,-0.34 0.73,-0.33 0.73,-0.33 0.74,-0.31 0.73,-0.3 0.73,-0.29 0.73,-0.29 0.73,-0.27 0.74,-0.27 0.73,-0.25 0.73,-0.25 0.73,-0.24 0.73,-0.23 0.74,-0.22 0.73,-0.21 0.73,-0.21 0.73,-0.19 0.73,-0.19 0.74,-0.18 0.73,-0.18 0.73,-0.16 0.73,-0.16 0.73,-0.15 0.74,-0.15 0.73,-0.14 0.73,-0.13 0.73,-0.12 0.73,-0.12 0.74,-0.12 0.73,-0.1 0.73,-0.1 0.73,-0.1 0.73,-0.09 0.74,-0.08 0.73,-0.08 0.73,-0.08 0.73,-0.07 0.73,-0.07 0.74,-0.06 0.73,-0.05 0.73,-0.06 0.73,-0.04 0.73,-0.05 0.74,-0.04 0.73,-0.04 0.73,-0.03 0.73,-0.03 0.73,-0.03 0.74,-0.02 0.73,-0.03 0.73,-0.02 0.73,-0.01 0.73,-0.02 0.74,-0.01 0.73,-0.01 0.73,-0.01 0.73,-0.01 h 0.73 l 0.74,-0.01 h 0.73 0.73 l 0.73,-0.01 h 0.73 0.74 0.73 0.73 0.7 0.73 0.73 0.73 0.73 0.74 l 0.73,-0.01 h 0.73 l 0.73,-0.01 h 0.73 l 0.74,-0.01 0.73,-0.01 0.73,-0.01 0.73,-0.02 0.73,-0.01 0.74,-0.02 0.73,-0.02 0.73,-0.03 0.73,-0.02 0.73,-0.03 0.74,-0.04 0.73,-0.03 0.73,-0.04 0.73,-0.05 0.73,-0.04 0.74,-0.05 0.73,-0.06 0.73,-0.06 0.73,-0.06 0.73,-0.07 0.74,-0.07 0.73,-0.08 0.73,-0.09 0.73,-0.08 0.73,-0.1 0.74,-0.1 0.73,-0.1 0.73,-0.11 0.73,-0.12 0.73,-0.12 0.74,-0.13 0.73,-0.14 0.73,-0.14 0.73,-0.15 0.73,-0.16 0.74,-0.16 0.73,-0.17 0.73,-0.18 0.73,-0.19 0.73,-0.19 0.74,-0.2 0.73,-0.21 0.73,-0.22 0.73,-0.23 0.73,-0.23 0.74,-0.24 0.73,-0.26 0.73,-0.26 0.73,-0.27 0.73,-0.28 0.74,-0.29 0.73,-0.3 0.73,-0.31 0.73,-0.32 0.73,-0.33 0.74,-0.34 0.73,-0.35 0.73,-0.36 0.73,-0.37 0.73,-0.38 0.74,-0.4 0.73,-0.4 0.73,-0.42 0.73,-0.43 0.73,-0.44 0.74,-0.45 0.73,-0.47 0.73,-0.47 0.73,-0.49 0.73,-0.5 0.74,-0.52 0.73,-0.52 0.73,-0.54 0.73,-0.56 0.73,-0.56 0.74,-0.58 0.73,-0.6 0.73,-0.6 0.73,-0.63 0.73,-0.63 0.74,-0.65 0.73,-0.67 0.73,-0.68 0.73,-0.69 0.73,-0.71 0.74,-0.72 0.73,-0.74 0.73,-0.76 0.73,-0.77 0.73,-0.78 0.74,-0.8 0.73,-0.82 0.73,-0.84 0.73,-0.85 0.73,-0.87 0.74,-0.88 0.73,-0.9 0.73,-0.92 0.73,-0.93 0.73,-0.96 0.74,-0.97 0.73,-0.98 0.73,-1.01 0.73,-1.02 0.73,-1.04 0.74,-1.06 0.73,-1.08 0.73,-1.1 0.73,-1.11 0.73,-1.14 0.74,-1.15 0.73,-1.18 0.73,-1.19 0.73,-1.21 0.73,-1.23 0.74,-1.25 0.73,-1.27 0.73,-1.3 0.73,-1.31 0.73,-1.33 0.74,-1.36 0.73,-1.37 0.73,-1.4 0.73,-1.41 0.73,-1.44 0.74,-1.46 0.73,-1.48 0.73,-1.5 0.73,-1.53 0.73,-1.54 0.74,-1.57 0.73,-1.6 0.73,-1.61 0.73,-1.64 0.73,-1.66 0.74,-1.68 0.73,-1.71 0.73,-1.73 0.73,-1.75 0.73,-1.78 0.74,-1.8 0.73,-1.82 0.73,-1.85 0.73,-1.88 0.73,-1.89 0.74,-1.93 0.73,-1.94 0.73,-1.98 0.73,-1.99 0.73,-2.03 0.74,-2.05 0.73,-2.07 0.73,-2.1 0.73,-2.13 0.73,-2.15 0.74,-2.18 0.73,-2.2 0.73,-2.23 0.73,-2.26 0.73,-2.29 0.74,-2.31 0.73,-2.34 0.73,-2.36 0.73,-2.4 0.73,-2.42 0.74,-2.45 0.73,-2.48 0.73,-2.5 0.73,-2.54 0.73,-2.56 0.74,-2.59 0.73,-2.62 0.73,-2.65 0.73,-2.68 0.73,-2.71 0.74,-2.74 0.73,-2.76 0.73,-2.8 0.73,-2.83 0.73,-2.85 0.74,-2.89 0.73,-2.92 0.73,-2.95 0.73,-2.98 0.73,-3 0.74,-3.05 0.73,-3.07 0.73,-3.1 0.73,-3.14 0.73,-3.16 0.74,-3.2 0.73,-3.23 0.73,-3.26 0.73,-3.3 0.73,-3.33 0.74,-3.36 0.73,-3.39 0.73,-3.43 0.73,-3.45 0.73,-3.5 0.74,-3.52 0.73,-3.56 0.73,-3.6 0.73,-3.62 0.73,-3.66 0.74,-3.7 0.73,-3.73 0.73,-3.76 0.73,-3.8 0.73,-3.84 0.74,-3.87 0.73,-3.9 0.73,-3.94 0.73,-3.97 0.73,-4.02 0.74,-4.04 0.73,-4.08 0.73,-4.12 0.73,-4.16 0.73,-4.19 0.74,-4.23 0.73,-4.26 0.73,-4.31 0.73,-4.34"
       id="asvg1SVG-plot-2182" />
  </g>
  <text
     xml:space="preserve"
     style="font-style:normal;font-weight:normal;font-size:40px;line-height:125%;font-family:sans-serif;letter-spacing:0px;word-spacing:0px;fill:#000000;fill-opacity:1;stroke:none;stroke-width:1px;stroke-linecap:butt;stroke-linejoin:miter;stroke-opacity:1"
     x="496.88574"
     y="103.81402"
     id="text3754"><tspan
       sodipodi:role="line"
       x="496.88574"
       y="103.81402"
       style="font-size:24px;line-height:100%"
       id="tspan4696">x^3+2x^2-700x+20005</tspan></text>
  <flowRoot
     xml:space="preserve"
     id="flowRoot3756"
     style="font-style:normal;font-weight:normal;font-size:24px;line-height:125%;font-family:sans-serif;letter-spacing:0px;word-spacing:0px;fill:#000000;fill-opacity:1;stroke:none;stroke-width:1px;stroke-linecap:butt;stroke-linejoin:miter;stroke-opacity:1"
     transform="translate(-11.775294,13.9496)"><flowRegion
       id="flowRegion3758"
       style="font-size:24px"><rect
         id="rect3760"
         width="264.40677"
         height="47.033897"
         x="508.47458"
         y="144.91525"
         style="font-size:24px" /></flowRegion><flowPara
       id="flowPara3762">x^3</flowPara></flowRoot>  <path
     style="fill:#cd00cd;fill-opacity:1;fill-rule:evenodd;stroke:#cd00cd;stroke-width:1.5;stroke-linecap:butt;stroke-linejoin:miter;stroke-miterlimit:4;stroke-dasharray:none;stroke-opacity:1"
     d="m 433.462,172.28858 h 49.57627"
     id="path3764"
     inkscape:connector-curvature="0" />
  <path
     inkscape:connector-curvature="0"
     id="path4571"
     d="m 433.462,98.28858 h 49.57627"
     style="fill:#cd00cd;fill-opacity:1;fill-rule:evenodd;stroke:#165a71;stroke-width:1.5;stroke-linecap:butt;stroke-linejoin:miter;stroke-miterlimit:4;stroke-dasharray:none;stroke-opacity:1" />
</svg>
