<?xml version="1.0" encoding="UTF-8" standalone="no"?>
<svg
   xmlns:dc="http://purl.org/dc/elements/1.1/"
   xmlns:cc="http://creativecommons.org/ns#"
   xmlns:rdf="http://www.w3.org/1999/02/22-rdf-syntax-ns#"
   xmlns:svg="http://www.w3.org/2000/svg"
   xmlns="http://www.w3.org/2000/svg"
   xmlns:sodipodi="http://sodipodi.sourceforge.net/DTD/sodipodi-0.dtd"
   xmlns:inkscape="http://www.inkscape.org/namespaces/inkscape"
   id="asvg1SVG"
   width="800"
   height="600"
   version="1.1"
   sodipodi:docname="x3.svg"
   inkscape:version="0.92.3 (2405546, 2018-03-11)">
  <metadata
     id="metadata27">
    <rdf:RDF>
      <cc:Work
         rdf:about="">
        <dc:format>image/svg+xml</dc:format>
        <dc:type
           rdf:resource="http://purl.org/dc/dcmitype/StillImage" />
        <dc:title></dc:title>
      </cc:Work>
    </rdf:RDF>
  </metadata>
  <defs
     id="defs25" />
  <sodipodi:namedview
     pagecolor="#ffffff"
     bordercolor="#666666"
     borderopacity="1"
     objecttolerance="10"
     gridtolerance="10"
     guidetolerance="10"
     inkscape:pageopacity="0"
     inkscape:pageshadow="2"
     inkscape:window-width="1304"
     inkscape:window-height="745"
     id="namedview23"
     showgrid="false"
     inkscape:zoom="0.78666667"
     inkscape:cx="200"
     inkscape:cy="293.07625"
     inkscape:window-x="54"
     inkscape:window-y="-8"
     inkscape:window-maximized="1"
     inkscape:current-layer="asvg1SVG" />
  <g
     id="g3750"
     transform="translate(33.728814,-365.25423)">
    <rect
       style="fill:#ffffff;stroke:none"
       height="300"
       width="400"
       y="500"
       x="0"
       id="brdBg_asvg1" />
    <path
       style="fill:none;stroke:#dddddd;stroke-width:1;shape-rendering:crispEdges"
       inkscape:connector-curvature="0"
       id="path3"
       d="M 220.33,500 V 800 M 301.67,500 V 800 M 383,500 V 800 M 139,500 V 800 M 57.67,500 V 800 M 0,729.8 H 400 M 0,783 H 400 M 0,676.6 H 400 M 0,623.4 H 400 M 0,570.2 H 400 M 0,517 h 400" />
    <path
       style="fill:none;stroke:#165a71;stroke-width:1;shape-rendering:crispEdges"
       inkscape:connector-curvature="0"
       id="path5"
       d="M 0,729.8 H 400 M 220.33,500 v 300 m 81.34,-67.2 v -6 m 81.33,6 v -6 m -244,6 v -6 m -81.33,6 v -6 M 223.33,783 h -6 m 6,-106.4 h -6 m 6,-53.2 h -6 m 6,-53.2 h -6 m 6,-53.2 h -6" />
    <text
       font-weight="normal"
       class="intmath"
       style="font-weight:normal;font-size:12px;text-anchor:middle"
       y="745.79999"
       x="301.67001"
       id="asvg1SVG-text-1353">2</text>
    <text
       font-weight="normal"
       class="intmath"
       style="font-weight:normal;font-size:12px;text-anchor:middle"
       y="745.79999"
       x="383"
       id="asvg1SVG-text-1354">4</text>
    <text
       font-weight="normal"
       class="intmath"
       style="font-weight:normal;font-size:12px;text-anchor:middle"
       y="745.79999"
       x="139"
       id="asvg1SVG-text-1355">-2</text>
    <text
       font-weight="normal"
       class="intmath"
       style="font-weight:normal;font-size:12px;text-anchor:middle"
       y="745.79999"
       x="57.669998"
       id="asvg1SVG-text-1356">-4</text>
    <text
       font-weight="normal"
       class="intmath"
       style="font-weight:normal;font-size:12px;text-anchor:end"
       y="680.59998"
       x="214.33"
       id="asvg1SVG-text-1357">2</text>
    <text
       font-weight="normal"
       class="intmath"
       style="font-weight:normal;font-size:12px;text-anchor:end"
       y="627.40002"
       x="214.33"
       id="asvg1SVG-text-1358">4</text>
    <text
       font-weight="normal"
       class="intmath"
       style="font-weight:normal;font-size:12px;text-anchor:end"
       y="574.20001"
       x="214.33"
       id="asvg1SVG-text-1359">6</text>
    <text
       font-weight="normal"
       class="intmath"
       style="font-weight:normal;font-size:12px;text-anchor:end"
       y="521"
       x="214.33"
       id="asvg1SVG-text-1360">8</text>
    <text
       font-weight="normal"
       class="intmath"
       style="font-weight:normal;font-size:12px;text-anchor:end"
       y="787"
       x="214.33"
       id="asvg1SVG-text-1361">-2</text>
    <text
       font-weight="normal"
       class="intmathItalic"
       style="font-weight:normal;font-size:16px;text-anchor:middle"
       y="723.79999"
       x="390"
       id="asvg1SVGxAxVbl">x</text>
    <text
       font-weight="normal"
       class="intmathItalic"
       style="font-weight:normal;font-size:16px;text-anchor:start"
       y="514"
       x="226.33"
       id="asvg1SVGyAxVbl">y</text>
    <path
       style="fill:#555555;stroke:#555555"
       inkscape:connector-curvature="0"
       id="xaxisArr"
       d="m 400,730 -12,-3 v 7 z" />
    <path
       style="fill:#555555;stroke:#555555"
       inkscape:connector-curvature="0"
       id="yaxisArr"
       d="m 220,500 -3,12 h 7 z" />
    <path
       style="vector-effect:non-scaling-stroke;fill:none;fill-opacity:1;stroke:#165a71;stroke-width:1.5;stroke-opacity:1"
       inkscape:connector-curvature="0"
       d="m 152.71,866.19 0.73,-7.1 0.74,-6.98 0.73,-6.85 0.73,-6.74 0.73,-6.63 0.73,-6.5 0.74,-6.4 0.73,-6.28 0.73,-6.16 0.73,-6.06 0.73,-5.94 0.74,-5.83 0.73,-5.72 0.73,-5.62 0.73,-5.51 0.73,-5.4 0.74,-5.29 0.73,-5.19 0.73,-5.09 0.73,-4.98 0.73,-4.89 0.74,-4.78 0.73,-4.68 0.73,-4.58 0.73,-4.49 0.73,-4.38 0.74,-4.29 0.73,-4.2 0.73,-4.1 0.73,-4.01 0.73,-3.91 0.74,-3.83 0.73,-3.73 0.73,-3.64 0.73,-3.56 0.73,-3.46 0.74,-3.38 0.73,-3.3 0.73,-3.21 0.73,-3.12 0.73,-3.04 0.74,-2.96 0.73,-2.88 0.73,-2.79 0.73,-2.72 0.73,-2.64 0.74,-2.56 0.73,-2.49 0.73,-2.4 0.73,-2.34 0.73,-2.26 0.74,-2.18 0.73,-2.12 0.73,-2.04 0.73,-1.98 0.73,-1.9 0.74,-1.84 0.73,-1.77 0.73,-1.7 0.73,-1.63 0.73,-1.58 0.74,-1.5 0.73,-1.45 0.73,-1.38 0.73,-1.33 0.73,-1.26 0.74,-1.2 0.73,-1.15 0.73,-1.09 0.73,-1.03 0.73,-0.98 0.74,-0.92 0.73,-0.87 0.73,-0.82 0.73,-0.76 0.73,-0.71 0.74,-0.67 0.73,-0.62 0.73,-0.56 0.73,-0.52 0.73,-0.48 0.74,-0.43 0.73,-0.39 0.73,-0.34 0.73,-0.3 0.73,-0.26 0.74,-0.22 0.73,-0.18 0.73,-0.14 0.73,-0.1 0.73,-0.07 0.74,-0.03 0.71,0.01 0.73,0.03 0.74,0.07 0.73,0.11 0.73,0.13 0.73,0.16 0.73,0.2 0.74,0.22 0.73,0.25 0.73,0.27 0.73,0.3 0.73,0.33 0.74,0.35 0.73,0.37 0.73,0.39 0.73,0.42 0.73,0.43 0.74,0.45 0.73,0.47 0.73,0.49 0.73,0.51 0.73,0.52 0.74,0.53 0.73,0.55 0.73,0.56 0.73,0.57 0.73,0.59 0.74,0.59 0.73,0.6 0.73,0.61 0.73,0.61 0.73,0.63 0.74,0.62 0.73,0.64 0.73,0.63 0.73,0.64 0.73,0.63 0.74,0.64 0.73,0.64 0.73,0.64 0.73,0.63 0.73,0.63 0.74,0.63 0.73,0.62 0.73,0.61 0.73,0.61 0.73,0.6 0.74,0.59 0.73,0.58 0.73,0.58 0.73,0.55 0.73,0.55 0.74,0.53 0.73,0.52 0.73,0.5 0.73,0.49 0.73,0.47 0.74,0.45 0.73,0.43 0.73,0.42 0.73,0.39 0.73,0.36 0.74,0.35 0.73,0.32 0.73,0.3 0.73,0.27 0.73,0.25 0.74,0.22 0.73,0.18 0.73,0.16 0.73,0.13 0.73,0.1 0.74,0.07 0.73,0.03 h 0.73 l 0.73,-0.03 0.73,-0.08 0.74,-0.11 0.73,-0.14 0.73,-0.19 0.73,-0.22 0.73,-0.27 0.74,-0.3 0.73,-0.35 0.73,-0.39 0.73,-0.44 0.73,-0.48 0.74,-0.53 0.73,-0.58 0.73,-0.62 0.73,-0.67 0.73,-0.72 0.74,-0.78 0.73,-0.82 0.73,-0.88 0.73,-0.93 0.73,-0.98 0.74,-1.04 0.73,-1.1 0.73,-1.16 0.73,-1.21 0.73,-1.27 0.74,-1.33 0.73,-1.39 0.73,-1.46 0.73,-1.52 0.73,-1.58 0.74,-1.64 0.73,-1.72 0.73,-1.77 0.73,-1.85 0.73,-1.91 0.74,-1.99 0.73,-2.05 0.73,-2.13 0.73,-2.2 0.73,-2.27 0.74,-2.34 0.73,-2.42 0.73,-2.5 0.73,-2.57 0.73,-2.65 0.74,-2.73 0.73,-2.81 0.73,-2.89 0.73,-2.97 0.73,-3.05 0.74,-3.14 0.73,-3.22 0.73,-3.3 0.73,-3.4 0.73,-3.48 0.74,-3.56 0.73,-3.66 0.73,-3.75 0.73,-3.83 0.73,-3.93 0.74,-4.02 0.73,-4.12 0.73,-4.21 0.73,-4.3 0.73,-4.4 0.74,-4.5 0.73,-4.6 0.73,-4.7 0.73,-4.79 0.73,-4.9 0.74,-5 0.73,-5.1 0.73,-5.21 0.73,-5.31 0.73,-5.41 0.74,-5.53 0.73,-5.63 0.73,-5.74"
       id="asvg1SVG-plot-1362" />
    <path
       style="vector-effect:non-scaling-stroke;fill:none;fill-opacity:1;stroke:#cc00cc;stroke-width:1.5;stroke-opacity:1"
       inkscape:connector-curvature="0"
       d="m 150.19,866.31 0.73,-4.23 0.73,-4.14 0.73,-4.05 0.74,-3.97 0.73,-3.88 0.73,-3.8 0.73,-3.71 0.73,-3.63 0.74,-3.55 0.73,-3.47 0.73,-3.39 0.73,-3.31 0.73,-3.23 0.74,-3.15 0.73,-3.08 0.73,-3 0.73,-2.93 0.73,-2.86 0.74,-2.78 0.73,-2.71 0.73,-2.64 0.73,-2.57 0.73,-2.51 0.74,-2.43 0.73,-2.37 0.73,-2.3 0.73,-2.24 0.73,-2.17 0.74,-2.11 0.73,-2.05 0.73,-1.98 0.73,-1.93 0.73,-1.87 0.74,-1.8 0.73,-1.76 0.73,-1.69 0.73,-1.64 0.73,-1.58 0.74,-1.53 0.73,-1.48 0.73,-1.42 0.73,-1.38 0.73,-1.32 0.74,-1.27 0.73,-1.23 0.73,-1.18 0.73,-1.13 0.73,-1.09 0.74,-1.04 0.73,-1 0.73,-0.96 0.73,-0.91 0.73,-0.87 0.74,-0.84 0.73,-0.79 0.73,-0.76 0.73,-0.72 0.73,-0.68 0.74,-0.65 0.73,-0.62 0.73,-0.58 0.73,-0.54 0.73,-0.52 0.74,-0.49 0.73,-0.45 0.73,-0.43 0.73,-0.4 0.73,-0.38 0.74,-0.34 0.73,-0.33 0.73,-0.3 0.73,-0.27 0.73,-0.25 0.74,-0.24 0.73,-0.21 0.73,-0.19 0.73,-0.17 0.73,-0.16 0.74,-0.14 0.73,-0.12 0.73,-0.11 0.73,-0.1 0.73,-0.08 0.74,-0.07 0.73,-0.06 0.73,-0.05 0.73,-0.04 0.73,-0.04 0.74,-0.02 0.73,-0.02 0.73,-0.01 0.73,-0.01 0.73,-0.01 h 0.74 0.73 0.71 0.74 0.73 0.73 l 0.73,-0.01 0.73,-0.01 0.74,-0.02 0.73,-0.02 0.73,-0.02 0.73,-0.04 0.73,-0.04 0.74,-0.06 0.73,-0.06 0.73,-0.07 0.73,-0.09 0.73,-0.1 0.74,-0.11 0.73,-0.13 0.73,-0.15 0.73,-0.16 0.73,-0.18 0.74,-0.2 0.73,-0.22 0.73,-0.23 0.73,-0.26 0.73,-0.29 0.74,-0.3 0.73,-0.33 0.73,-0.36 0.73,-0.38 0.73,-0.41 0.74,-0.44 0.73,-0.47 0.73,-0.49 0.73,-0.53 0.73,-0.56 0.74,-0.59 0.73,-0.62 0.73,-0.66 0.73,-0.7 0.73,-0.73 0.74,-0.77 0.73,-0.81 0.73,-0.84 0.73,-0.89 0.73,-0.93 0.74,-0.97 0.73,-1.01 0.73,-1.06 0.73,-1.1 0.73,-1.15 0.74,-1.19 0.73,-1.24 0.73,-1.29 0.73,-1.34 0.73,-1.39 0.74,-1.44 0.73,-1.5 0.73,-1.54 0.73,-1.6 0.73,-1.66 0.74,-1.71 0.73,-1.77 0.73,-1.83 0.73,-1.88 0.73,-1.95 0.74,-2 0.73,-2.07 0.73,-2.13 0.73,-2.19 0.73,-2.26 0.74,-2.33 0.73,-2.38 0.73,-2.46 0.73,-2.53 0.73,-2.59 0.74,-2.66 0.73,-2.74 0.73,-2.8 0.73,-2.88 0.73,-2.95 0.74,-3.03 0.73,-3.1 0.73,-3.18 0.73,-3.26 0.73,-3.33 0.74,-3.42 0.73,-3.49 0.73,-3.58 0.73,-3.66 0.73,-3.74 0.74,-3.82 0.73,-3.91 0.73,-4 0.73,-4.08 0.73,-4.17 0.74,-4.25 0.73,-4.35 0.73,-4.44 0.73,-4.53 0.73,-4.62 0.74,-4.71 0.73,-4.81 0.73,-4.91 0.73,-5 0.73,-5.09 0.74,-5.2 0.73,-5.29 0.73,-5.4 0.73,-5.49 0.73,-5.59 0.74,-5.7 0.73,-5.8 0.73,-5.91 0.73,-6.01 0.73,-6.12 0.74,-6.22 0.73,-6.34 0.73,-6.44 0.73,-6.55 0.73,-6.66 0.74,-6.78 0.73,-6.88 0.73,-7.01"
       id="asvg1SVG-plot-1363" />
  </g>
  <text
     xml:space="preserve"
     style="font-style:normal;font-weight:normal;font-size:40px;line-height:125%;font-family:sans-serif;letter-spacing:0px;word-spacing:0px;fill:#000000;fill-opacity:1;stroke:none;stroke-width:1px;stroke-linecap:butt;stroke-linejoin:miter;stroke-opacity:1"
     x="504.66101"
     y="111.86441"
     id="text3754"><tspan
       sodipodi:role="line"
       id="tspan3752"
       x="504.66101"
       y="111.86441">x^3-2x^2+5</tspan></text>
  <flowRoot
     xml:space="preserve"
     id="flowRoot3756"
     style="font-style:normal;font-weight:normal;font-size:40px;line-height:125%;font-family:sans-serif;letter-spacing:0px;word-spacing:0px;fill:#000000;fill-opacity:1;stroke:none;stroke-width:1px;stroke-linecap:butt;stroke-linejoin:miter;stroke-opacity:1"
     transform="translate(-6)"><flowRegion
       id="flowRegion3758"><rect
         id="rect3760"
         width="264.40677"
         height="47.033897"
         x="508.47458"
         y="144.91525" /></flowRegion><flowPara
       id="flowPara3762">x^3</flowPara></flowRoot>  <path
     style="fill:#cd00cd;fill-opacity:1;fill-rule:evenodd;stroke:#cd00cd;stroke-width:1.5;stroke-linecap:butt;stroke-linejoin:miter;stroke-miterlimit:4;stroke-dasharray:none;stroke-opacity:1"
     d="m 439.23729,170.33898 h 49.57627"
     id="path3764"
     inkscape:connector-curvature="0" />
  <path
     inkscape:connector-curvature="0"
     id="path4571"
     d="m 439.23729,96.33898 h 49.57627"
     style="fill:#cd00cd;fill-opacity:1;fill-rule:evenodd;stroke:#165a71;stroke-width:1.5;stroke-linecap:butt;stroke-linejoin:miter;stroke-miterlimit:4;stroke-dasharray:none;stroke-opacity:1" />
</svg>
