<?xml version="1.0" encoding="UTF-8" standalone="no"?>
<svg
   xmlns:dc="http://purl.org/dc/elements/1.1/"
   xmlns:cc="http://creativecommons.org/ns#"
   xmlns:rdf="http://www.w3.org/1999/02/22-rdf-syntax-ns#"
   xmlns:svg="http://www.w3.org/2000/svg"
   xmlns="http://www.w3.org/2000/svg"
   xmlns:sodipodi="http://sodipodi.sourceforge.net/DTD/sodipodi-0.dtd"
   xmlns:inkscape="http://www.inkscape.org/namespaces/inkscape"
   id="asvg1SVG"
   width="800"
   height="600"
   version="1.1"
   sodipodi:docname="x_vs_logx.svg"
   inkscape:version="0.92.3 (2405546, 2018-03-11)">
  <metadata
     id="metadata33">
    <rdf:RDF>
      <cc:Work
         rdf:about="">
        <dc:format>image/svg+xml</dc:format>
        <dc:type
           rdf:resource="http://purl.org/dc/dcmitype/StillImage" />
        <dc:title></dc:title>
      </cc:Work>
    </rdf:RDF>
  </metadata>
  <defs
     id="defs31" />
  <sodipodi:namedview
     pagecolor="#ffffff"
     bordercolor="#666666"
     borderopacity="1"
     objecttolerance="10"
     gridtolerance="10"
     guidetolerance="10"
     inkscape:pageopacity="0"
     inkscape:pageshadow="2"
     inkscape:window-width="1304"
     inkscape:window-height="745"
     id="namedview29"
     showgrid="false"
     inkscape:zoom="0.79111111"
     inkscape:cx="225"
     inkscape:cy="361.6765"
     inkscape:window-x="54"
     inkscape:window-y="-8"
     inkscape:window-maximized="1"
     inkscape:current-layer="asvg1SVG" />
  <rect
     id="brdBg_asvg1"
     x="16.432585"
     y="164.18539"
     width="450"
     height="250"
     style="fill:#ffffff;stroke:none" />
  <path
     d="m 71.252584,164.18539 v 250 m 37.819996,-250 v 250 m 37.81,-250 v 250 m 37.82,-250 v 250 m 37.82,-250 v 250 m 37.82,-250 v 250 m 37.82,-250 v 250 m 37.82,-250 v 250 m 37.81,-250 v 250 m 37.82,-250 v 250 m 37.82,-250 v 250 m -415.999996,-250 v 250 m -17,-71 H 466.43258 m -449.999996,54 H 466.43258 m -449.999996,-108 H 466.43258 m -449.999996,-54 H 466.43258 m -449.999996,-54 H 466.43258"
     id="path3"
     inkscape:connector-curvature="0"
     style="fill:none;stroke:#dddddd;stroke-width:1;shape-rendering:crispEdges" />
  <path
     d="M 16.432584,343.18539 H 466.43258 m -395.179996,-179 v 250 m 37.819996,-67.62 v -6.75 m 37.81,6.75 v -6.75 m 37.82,6.75 v -6.75 m 37.82,6.75 v -6.75 m 37.82,6.75 v -6.75 m 37.82,6.75 v -6.75 m 37.82,6.75 v -6.75 m 37.81,6.75 v -6.75 m 37.82,6.75 v -6.75 m 37.82,6.75 v -6.75 m -415.999996,6.75 v -6.75 m 41.19,57.37 h -6.75 m 6.75,-108 h -6.75 m 6.75,-54 h -6.75 m 6.75,-54 h -6.75"
     id="path5"
     inkscape:connector-curvature="0"
     style="fill:none;stroke:#165a71;stroke-width:1;shape-rendering:crispEdges" />
  <text
     id="asvg1SVG-text-1088"
     x="109.07259"
     y="360.68539"
     style="font-weight:normal;font-size:13.5px;text-anchor:middle"
     class="intmath"
     font-weight="normal">1</text>
  <text
     id="asvg1SVG-text-1089"
     x="146.88258"
     y="360.68539"
     style="font-weight:normal;font-size:13.5px;text-anchor:middle"
     class="intmath"
     font-weight="normal">2</text>
  <text
     id="asvg1SVG-text-1090"
     x="184.70259"
     y="360.68539"
     style="font-weight:normal;font-size:13.5px;text-anchor:middle"
     class="intmath"
     font-weight="normal">3</text>
  <text
     id="asvg1SVG-text-1091"
     x="222.52258"
     y="360.68539"
     style="font-weight:normal;font-size:13.5px;text-anchor:middle"
     class="intmath"
     font-weight="normal">4</text>
  <text
     id="asvg1SVG-text-1092"
     x="260.34259"
     y="360.68539"
     style="font-weight:normal;font-size:13.5px;text-anchor:middle"
     class="intmath"
     font-weight="normal">5</text>
  <text
     id="asvg1SVG-text-1093"
     x="298.1626"
     y="360.68539"
     style="font-weight:normal;font-size:13.5px;text-anchor:middle"
     class="intmath"
     font-weight="normal">6</text>
  <text
     id="asvg1SVG-text-1094"
     x="335.98257"
     y="360.68539"
     style="font-weight:normal;font-size:13.5px;text-anchor:middle"
     class="intmath"
     font-weight="normal">7</text>
  <text
     id="asvg1SVG-text-1095"
     x="373.79257"
     y="360.68539"
     style="font-weight:normal;font-size:13.5px;text-anchor:middle"
     class="intmath"
     font-weight="normal">8</text>
  <text
     id="asvg1SVG-text-1096"
     x="411.61258"
     y="360.68539"
     style="font-weight:normal;font-size:13.5px;text-anchor:middle"
     class="intmath"
     font-weight="normal">9</text>
  <text
     id="asvg1SVG-text-1097"
     x="449.43259"
     y="360.68539"
     style="font-weight:normal;font-size:13.5px;text-anchor:middle"
     class="intmath"
     font-weight="normal">10</text>
  <text
     id="asvg1SVG-text-1098"
     x="33.432583"
     y="360.68539"
     style="font-weight:normal;font-size:13.5px;text-anchor:middle"
     class="intmath"
     font-weight="normal">-1</text>
  <text
     id="asvg1SVG-text-1099"
     x="64.502586"
     y="293.68539"
     style="font-weight:normal;font-size:13.5px;text-anchor:end"
     class="intmath"
     font-weight="normal">2</text>
  <text
     id="asvg1SVG-text-1100"
     x="64.502586"
     y="239.68539"
     style="font-weight:normal;font-size:13.5px;text-anchor:end"
     class="intmath"
     font-weight="normal">4</text>
  <text
     id="asvg1SVG-text-1101"
     x="64.502586"
     y="185.68539"
     style="font-weight:normal;font-size:13.5px;text-anchor:end"
     class="intmath"
     font-weight="normal">6</text>
  <text
     id="asvg1SVG-text-1102"
     x="64.502586"
     y="401.68539"
     style="font-weight:normal;font-size:13.5px;text-anchor:end"
     class="intmath"
     font-weight="normal">-2</text>
  <text
     id="asvg1SVGxAxVbl"
     x="456.43259"
     y="336.43539"
     style="font-weight:normal;font-size:16px;text-anchor:middle"
     class="intmathItalic"
     font-weight="normal">x</text>
  <text
     id="asvg1SVGyAxVbl"
     x="78.002586"
     y="178.68539"
     style="font-weight:normal;font-size:16px;text-anchor:start"
     class="intmathItalic"
     font-weight="normal">y</text>
  <path
     d="m 466.43258,343.18539 -12,-3 v 7 z"
     id="xaxisArr"
     inkscape:connector-curvature="0"
     style="fill:#555555;stroke:#555555" />
  <path
     d="m 71.432584,164.18539 -4,12 h 7 z"
     id="yaxisArr"
     inkscape:connector-curvature="0"
     style="fill:#555555;stroke:#555555" />
  <path
     id="asvg1SVG-plot-1103"
     d="m 33.432584,370.18539 0.83,-0.59 0.83,-0.6 0.84,-0.59 0.83,-0.6 0.83,-0.59 0.83,-0.59 0.83,-0.6 0.84,-0.59 0.83,-0.6 0.83,-0.59 0.83,-0.59 0.83,-0.6 0.84,-0.59 0.83,-0.6 0.83,-0.59 0.83,-0.59 0.83,-0.6 0.84,-0.59 0.83,-0.6 0.83,-0.59 0.83,-0.59 0.83,-0.6 0.84,-0.59 0.83,-0.6 0.83,-0.59 0.83,-0.59 0.83,-0.6 0.84,-0.59 0.83,-0.6 0.83,-0.59 0.83,-0.59 0.83,-0.6 0.84,-0.59 0.83,-0.6 0.83,-0.59 0.83,-0.59 0.83,-0.6 0.84,-0.59 0.83,-0.6 0.83,-0.59 0.83,-0.59 0.83,-0.6 0.84,-0.59 0.83,-0.6 0.83,-0.59 0.79,-0.57 0.84,-0.59 0.83,-0.59 0.83,-0.6 0.83,-0.59 0.83,-0.6 0.84,-0.59 0.83,-0.59 0.83,-0.6 0.83,-0.59 0.83,-0.6 0.84,-0.59 0.83,-0.59 0.83,-0.6 0.83,-0.59 0.83,-0.6 0.84,-0.59 0.83,-0.59 0.83,-0.6 0.83,-0.59 0.83,-0.6 0.84,-0.59 0.83,-0.59 0.83,-0.6 0.83,-0.59 0.83,-0.6 0.84,-0.59 0.83,-0.59 0.83,-0.6 0.83,-0.59 0.83,-0.6 0.84,-0.59 0.83,-0.59 0.83,-0.6 0.83,-0.59 0.829996,-0.6 0.84,-0.59 0.83,-0.59 0.83,-0.6 0.83,-0.59 0.83,-0.6 0.84,-0.59 0.83,-0.59 0.83,-0.6 0.83,-0.59 0.83,-0.6 0.84,-0.59 0.83,-0.59 0.83,-0.6 0.83,-0.59 0.83,-0.6 0.84,-0.59 0.83,-0.59 0.83,-0.6 0.83,-0.59 0.83,-0.6 0.84,-0.59 0.83,-0.59 0.83,-0.6 0.83,-0.59 0.83,-0.6 0.84,-0.59 0.83,-0.59 0.83,-0.6 0.83,-0.59 0.83,-0.6 0.84,-0.59 0.83,-0.59 0.83,-0.6 0.83,-0.59 0.83,-0.6 0.84,-0.59 0.83,-0.59 0.83,-0.6 0.83,-0.59 0.83,-0.6 0.84,-0.59 0.83,-0.59 0.83,-0.6 0.83,-0.59 0.83,-0.6 0.84,-0.59 0.83,-0.59 0.83,-0.6 0.83,-0.59 0.83,-0.6 0.84,-0.59 0.83,-0.59 0.83,-0.6 0.83,-0.59 0.83,-0.6 0.84,-0.59 0.83,-0.59 0.83,-0.6 0.83,-0.59 0.83,-0.6 0.84,-0.59 0.83,-0.59 0.83,-0.6 0.83,-0.59 0.83,-0.6 0.84,-0.59 0.83,-0.59 0.83,-0.6 0.83,-0.59 0.83,-0.6 0.84,-0.59 0.83,-0.59 0.83,-0.6 0.83,-0.59 0.83,-0.6 0.84,-0.59 0.83,-0.59 0.83,-0.6 0.83,-0.59 0.83,-0.6 0.84,-0.59 0.83,-0.59 0.83,-0.6 0.83,-0.59 0.83,-0.6 0.84,-0.59 0.83,-0.59 0.83,-0.6 0.83,-0.59 0.83,-0.6 0.84,-0.59 0.83,-0.59 0.83,-0.6 0.83,-0.59 0.83,-0.6 0.84,-0.59 0.83,-0.59 0.83,-0.6 0.83,-0.59 0.83,-0.6 0.84,-0.59 0.83,-0.59 0.83,-0.6 0.83,-0.59 0.83,-0.6 0.84,-0.59 0.83,-0.59 0.83,-0.6 0.83,-0.59 0.83,-0.6 0.84,-0.59 0.83,-0.59 0.83,-0.6 0.83,-0.59 0.83,-0.6 0.84,-0.59 0.83,-0.59 0.83,-0.6 0.83,-0.59 0.83,-0.6 0.84,-0.59 0.83,-0.59 0.83,-0.6 0.83,-0.59 0.83,-0.6 0.84,-0.59 0.83,-0.59 0.83,-0.6 0.83,-0.59 0.83,-0.6 0.84,-0.59 0.83,-0.59 0.83,-0.6 0.83,-0.59 0.83,-0.6 0.84,-0.59 0.83,-0.59 0.83,-0.6 0.83,-0.59 0.83,-0.6 0.84,-0.59 0.83,-0.59 0.83,-0.6 0.83,-0.59 0.83,-0.6 0.84,-0.59 0.83,-0.59 0.83,-0.6 0.83,-0.59 0.83,-0.6 0.84,-0.59 0.83,-0.59 0.83,-0.6 0.83,-0.59 0.83,-0.6 0.84,-0.59 0.83,-0.59 0.83,-0.6 0.83,-0.59 0.83,-0.6 0.84,-0.59 0.83,-0.59 0.83,-0.6 0.83,-0.59 0.83,-0.6 0.84,-0.59 0.83,-0.59 0.83,-0.6 0.83,-0.59 0.83,-0.6 0.84,-0.59 0.83,-0.59 0.83,-0.6 0.83,-0.59 0.83,-0.6 0.84,-0.59 0.83,-0.59 0.83,-0.6 0.83,-0.59 0.83,-0.6 0.84,-0.59 0.83,-0.59 0.83,-0.6 0.83,-0.59 0.83,-0.6 0.84,-0.59 0.83,-0.59 0.83,-0.6 0.83,-0.59 0.83,-0.6 0.84,-0.59 0.83,-0.59 0.83,-0.6 0.83,-0.59 0.83,-0.6 0.84,-0.59 0.83,-0.59 0.83,-0.6 0.83,-0.59 0.83,-0.6 0.84,-0.59 0.83,-0.59 0.83,-0.6 0.83,-0.59 0.83,-0.6 0.84,-0.59 0.83,-0.59 0.83,-0.6 0.83,-0.59 0.83,-0.6 0.84,-0.59 0.83,-0.59 0.83,-0.6 0.83,-0.59 0.83,-0.6 0.84,-0.59 0.83,-0.59 0.83,-0.6 0.83,-0.59 0.83,-0.6 0.84,-0.59 0.83,-0.59 0.83,-0.6 0.83,-0.59 0.83,-0.6 0.84,-0.59 0.83,-0.59 0.83,-0.6 0.83,-0.59 0.83,-0.6 0.84,-0.59 0.83,-0.59 0.83,-0.6 0.83,-0.59 0.83,-0.6 0.84,-0.59 0.83,-0.59 0.83,-0.6 0.83,-0.59 0.83,-0.6 0.84,-0.59 0.83,-0.59 0.83,-0.6 0.83,-0.59 0.83,-0.6 0.84,-0.59 0.83,-0.59 0.83,-0.6 0.83,-0.59 0.83,-0.6 0.84,-0.59 0.83,-0.59 0.83,-0.6 0.83,-0.59 0.83,-0.6 0.84,-0.59 0.83,-0.59 0.83,-0.6 0.83,-0.59 0.83,-0.6 0.84,-0.59 0.83,-0.59 0.83,-0.6 0.83,-0.59 0.83,-0.6 0.84,-0.59 0.83,-0.59 0.83,-0.6 0.83,-0.59 0.83,-0.6 0.84,-0.59 0.83,-0.59 0.83,-0.6 0.83,-0.59 0.83,-0.6 0.84,-0.59 0.83,-0.59 0.83,-0.6 0.83,-0.59 0.83,-0.6 0.84,-0.59 0.83,-0.59 0.83,-0.6 0.83,-0.59 0.83,-0.6 0.84,-0.59 0.83,-0.59 0.83,-0.6 0.83,-0.59 0.83,-0.6 0.84,-0.59 0.83,-0.59 0.83,-0.6 0.83,-0.59 0.83,-0.6 0.84,-0.59 0.83,-0.59 0.83,-0.6 0.83,-0.59 0.83,-0.6 0.84,-0.59 0.83,-0.59 0.83,-0.6 0.83,-0.59 0.83,-0.6 0.84,-0.59 0.83,-0.59 0.83,-0.6 0.83,-0.59 0.83,-0.6 0.84,-0.59 0.83,-0.59 0.83,-0.6 0.83,-0.59 0.83,-0.6 0.84,-0.59 0.83,-0.59 0.83,-0.6 0.83,-0.59 0.83,-0.6 0.84,-0.59 0.83,-0.59 0.83,-0.6 0.83,-0.59 0.83,-0.6 0.84,-0.59 0.83,-0.59 0.83,-0.6 0.83,-0.59 0.83,-0.6 0.84,-0.59 0.83,-0.59 0.83,-0.6 0.83,-0.59 0.83,-0.6 0.84,-0.59 0.83,-0.59 0.83,-0.6 0.83,-0.59 0.83,-0.6 0.84,-0.59 0.83,-0.59 0.83,-0.6 0.83,-0.59 0.83,-0.6 0.84,-0.59 0.83,-0.59 0.83,-0.6 0.83,-0.59 0.83,-0.6 0.84,-0.59 0.83,-0.59 0.83,-0.6 0.83,-0.59 0.83,-0.6 0.84,-0.59"
     inkscape:connector-curvature="0"
     style="vector-effect:non-scaling-stroke;fill:none;fill-opacity:1;stroke:#165a71;stroke-width:1.5;stroke-opacity:1" />
  <path
     id="asvg1SVG-plot-1104"
     d="m 71.292584,423.06539 0.04,-8.13 0.04,-4.75 0.04,-3.37 0.05,-2.62 0.04,-2.14 0.04,-1.81 0.04,-1.56 0.04,-1.38 0.04,-1.24 0.05,-1.12 0.04,-1.02 0.04,-0.93 0.04,-0.87 0.04,-0.81 0.04,-0.76 0.05,-0.71 0.04,-0.67 0.04,-0.63 0.04,-0.61 0.04,-0.57 0.04,-0.54 0.04,-0.52 0.05,-0.5 0.04,-0.48 0.04,-0.46 0.04,-0.44 0.58,-4.9 0.84,-4.66 0.83,-3.33 0.83,-2.58 0.83,-2.12 0.83,-1.8 0.84,-1.55 0.83,-1.37 0.83,-1.23 0.83,-1.12 0.83,-1.01 0.84,-0.94 0.83,-0.86 0.83,-0.81 0.83,-0.75 0.83,-0.71 0.84,-0.67 0.83,-0.63 0.83,-0.6 0.83,-0.57 0.83,-0.55 0.84,-0.52 0.83,-0.5 0.83,-0.47 0.83,-0.46 0.83,-0.44 0.84,-0.43 0.83,-0.41 0.83,-0.4 0.83,-0.38 0.83,-0.37 0.84,-0.36 0.83,-0.35 0.829996,-0.34 0.83,-0.33 0.83,-0.32 0.84,-0.31 0.83,-0.31 0.83,-0.3 0.83,-0.28 0.83,-0.29 0.84,-0.27 0.83,-0.27 0.83,-0.27 0.83,-0.25 0.83,-0.25 0.84,-0.25 0.83,-0.24 0.83,-0.24 0.83,-0.23 0.83,-0.23 0.84,-0.22 0.83,-0.22 0.83,-0.22 0.83,-0.21 0.83,-0.2 0.84,-0.21 0.83,-0.2 0.83,-0.2 0.83,-0.19 0.83,-0.19 0.84,-0.19 0.83,-0.18 0.83,-0.18 0.83,-0.18 0.83,-0.18 0.84,-0.17 0.83,-0.17 0.83,-0.17 0.83,-0.17 0.83,-0.16 0.84,-0.16 0.83,-0.16 0.83,-0.16 0.83,-0.16 0.83,-0.15 0.84,-0.15 0.83,-0.15 0.83,-0.15 0.83,-0.14 0.83,-0.15 0.84,-0.14 0.83,-0.14 0.83,-0.14 0.83,-0.13 0.83,-0.14 0.84,-0.13 0.83,-0.14 0.83,-0.13 0.83,-0.13 0.83,-0.12 0.84,-0.13 0.83,-0.13 0.83,-0.12 0.83,-0.12 0.83,-0.12 0.84,-0.12 0.83,-0.12 0.83,-0.12 0.83,-0.12 0.83,-0.11 0.84,-0.12 0.83,-0.11 0.83,-0.11 0.83,-0.11 0.83,-0.11 0.84,-0.11 0.83,-0.11 0.83,-0.11 0.83,-0.1 0.83,-0.11 0.84,-0.1 0.83,-0.11 0.83,-0.1 0.83,-0.1 0.83,-0.1 0.84,-0.1 0.83,-0.1 0.83,-0.1 0.83,-0.1 0.83,-0.09 0.84,-0.1 0.83,-0.09 0.83,-0.1 0.83,-0.09 0.83,-0.09 0.84,-0.09 0.83,-0.1 0.83,-0.09 0.83,-0.09 0.83,-0.09 0.84,-0.08 0.83,-0.09 0.83,-0.09 0.83,-0.09 0.83,-0.08 0.84,-0.09 0.83,-0.08 0.83,-0.09 0.83,-0.08 0.83,-0.08 0.84,-0.08 0.83,-0.09 0.83,-0.08 0.83,-0.08 0.83,-0.08 0.84,-0.08 0.83,-0.08 0.83,-0.07 0.83,-0.08 0.83,-0.08 0.84,-0.08 0.83,-0.07 0.83,-0.08 0.83,-0.07 0.83,-0.08 0.84,-0.07 0.83,-0.08 0.83,-0.07 0.83,-0.07 0.83,-0.08 0.84,-0.07 0.83,-0.07 0.83,-0.07 0.83,-0.07 0.83,-0.07 0.84,-0.07 0.83,-0.07 0.83,-0.07 0.83,-0.07 0.83,-0.07 0.84,-0.07 0.83,-0.06 0.83,-0.07 0.83,-0.07 0.83,-0.06 0.84,-0.07 0.83,-0.07 0.83,-0.06 0.83,-0.07 0.83,-0.06 0.84,-0.06 0.83,-0.07 0.83,-0.06 0.83,-0.07 0.83,-0.06 0.84,-0.06 0.83,-0.06 0.83,-0.06 0.83,-0.07 0.83,-0.06 0.84,-0.06 0.83,-0.06 0.83,-0.06 0.83,-0.06 0.83,-0.06 0.84,-0.06 0.83,-0.06 0.83,-0.06 0.83,-0.05 0.83,-0.06 0.84,-0.06 0.83,-0.06 0.83,-0.06 0.83,-0.05 0.83,-0.06 0.84,-0.06 0.83,-0.05 0.83,-0.06 0.83,-0.05 0.83,-0.06 0.84,-0.05 0.83,-0.06 0.83,-0.05 0.83,-0.06 0.83,-0.05 0.84,-0.06 0.83,-0.05 0.83,-0.05 0.83,-0.06 0.83,-0.05 0.84,-0.05 0.83,-0.05 0.83,-0.06 0.83,-0.05 0.83,-0.05 0.84,-0.05 0.83,-0.05 0.83,-0.05 0.83,-0.06 0.83,-0.05 0.84,-0.05 0.83,-0.05 0.83,-0.05 0.83,-0.05 0.83,-0.05 0.84,-0.05 0.83,-0.04 0.83,-0.05 0.83,-0.05 0.83,-0.05 0.84,-0.05 0.83,-0.05 0.83,-0.05 0.83,-0.04 0.83,-0.05 0.84,-0.05 0.83,-0.05 0.83,-0.04 0.83,-0.05 0.83,-0.05 0.84,-0.04 0.83,-0.05 0.83,-0.04 0.83,-0.05 0.83,-0.05 0.84,-0.04 0.83,-0.05 0.83,-0.04 0.83,-0.05 0.83,-0.04 0.84,-0.05 0.83,-0.04 0.83,-0.05 0.83,-0.04 0.83,-0.04 0.84,-0.05 0.83,-0.04 0.83,-0.04 0.83,-0.05 0.83,-0.04 0.84,-0.04 0.83,-0.05 0.83,-0.04 0.83,-0.04 0.83,-0.04 0.84,-0.05 0.83,-0.04 0.83,-0.04 0.83,-0.04 0.83,-0.04 0.84,-0.05 0.83,-0.04 0.83,-0.04 0.83,-0.04 0.83,-0.04 0.84,-0.04 0.83,-0.04 0.83,-0.04 0.83,-0.04 0.83,-0.04 0.84,-0.04 0.83,-0.04 0.83,-0.04 0.83,-0.04 0.83,-0.04 0.84,-0.04 0.83,-0.04 0.83,-0.04 0.83,-0.04 0.83,-0.04 0.84,-0.04 0.83,-0.03 0.83,-0.04 0.83,-0.04 0.83,-0.04 0.84,-0.04 0.83,-0.04 0.83,-0.03 0.83,-0.04 0.83,-0.04 0.84,-0.04 0.83,-0.03 0.83,-0.04 0.83,-0.04 0.83,-0.04 0.84,-0.03 0.83,-0.04 0.83,-0.04 0.83,-0.03 0.83,-0.04 0.84,-0.04 0.83,-0.03 0.83,-0.04 0.83,-0.03 0.83,-0.04 0.84,-0.04 0.83,-0.03 0.83,-0.04 0.83,-0.03 0.83,-0.04 0.84,-0.03 0.83,-0.04 0.83,-0.03 0.83,-0.04 0.83,-0.03 0.84,-0.04 0.83,-0.03 0.83,-0.04 0.83,-0.03 0.83,-0.04 0.84,-0.03 0.83,-0.03 0.83,-0.04 0.83,-0.03 0.83,-0.04 0.84,-0.03 0.83,-0.03 0.83,-0.04 0.83,-0.03 0.83,-0.03 0.84,-0.04 0.83,-0.03 0.83,-0.03 0.83,-0.04 0.83,-0.03 0.84,-0.03 0.83,-0.03 0.83,-0.04 0.83,-0.03 0.83,-0.03 0.84,-0.03 0.83,-0.04 0.83,-0.03 0.83,-0.03 0.83,-0.03 0.84,-0.03 0.83,-0.04 0.83,-0.03 0.83,-0.03 0.83,-0.03 0.84,-0.03 0.83,-0.03 0.83,-0.04 0.83,-0.03 0.83,-0.03 0.84,-0.03 0.83,-0.03 0.83,-0.03 0.83,-0.03 0.83,-0.03 0.84,-0.03 0.83,-0.03 0.83,-0.03 0.83,-0.03 0.83,-0.04 0.84,-0.03 0.83,-0.03 0.83,-0.03 0.83,-0.03 0.83,-0.03 0.84,-0.03 0.83,-0.03 0.83,-0.03 0.83,-0.02 0.83,-0.03 0.84,-0.03 0.83,-0.03 0.83,-0.03 0.83,-0.03 0.83,-0.03 0.84,-0.03 0.83,-0.03 0.83,-0.03 0.83,-0.03 0.83,-0.03 0.84,-0.02 0.83,-0.03 0.83,-0.03 0.83,-0.03 0.83,-0.03 0.84,-0.03 0.83,-0.03 0.83,-0.02 0.83,-0.03 0.83,-0.03 0.84,-0.03 0.83,-0.03 0.83,-0.02 0.83,-0.03 0.83,-0.03 0.84,-0.03 0.83,-0.03 0.83,-0.02 0.83,-0.03 0.83,-0.03 0.84,-0.03 0.83,-0.02 0.83,-0.03 0.83,-0.03 0.83,-0.02 0.84,-0.03 0.83,-0.03 0.83,-0.03 0.83,-0.02 0.83,-0.03 0.84,-0.03 0.83,-0.02 0.83,-0.03 0.83,-0.03 0.83,-0.02 0.84,-0.03 0.83,-0.03 0.83,-0.02 0.83,-0.03 0.83,-0.03 0.84,-0.02 0.83,-0.03 0.83,-0.02 0.83,-0.03 0.83,-0.03 0.84,-0.02 0.83,-0.03"
     inkscape:connector-curvature="0"
     style="vector-effect:non-scaling-stroke;fill:none;fill-opacity:1;stroke:#cc00cc;stroke-width:1.5;stroke-opacity:1" />
  <text
     xml:space="preserve"
     style="font-style:normal;font-weight:normal;font-size:40px;line-height:125%;font-family:sans-serif;letter-spacing:0px;word-spacing:0px;fill:#000000;fill-opacity:1;stroke:none;stroke-width:1px;stroke-linecap:butt;stroke-linejoin:miter;stroke-opacity:1"
     x="573.96667"
     y="120.99702"
     id="text3754"><tspan
       sodipodi:role="line"
       id="tspan3752"
       x="573.96667"
       y="120.99702"
       style="font-size:;baseline-shift:baseline">x</tspan></text>
  <path
     style="fill:#cd00cd;fill-opacity:1;fill-rule:evenodd;stroke:#cd00cd;stroke-width:1.5;stroke-linecap:butt;stroke-linejoin:miter;stroke-miterlimit:4;stroke-dasharray:none;stroke-opacity:1"
     d="m 508.54294,179.47159 h 49.57627"
     id="path3764"
     inkscape:connector-curvature="0" />
  <path
     inkscape:connector-curvature="0"
     id="path4571"
     d="m 508.54294,105.47159 h 49.57627"
     style="fill:#cd00cd;fill-opacity:1;fill-rule:evenodd;stroke:#165a71;stroke-width:1.5;stroke-linecap:butt;stroke-linejoin:miter;stroke-miterlimit:4;stroke-dasharray:none;stroke-opacity:1" />
  <text
     id="text252"
     y="188.99702"
     x="573.96667"
     style="font-style:normal;font-weight:normal;font-size:40px;line-height:125%;font-family:sans-serif;letter-spacing:0px;word-spacing:0px;fill:#000000;fill-opacity:1;stroke:none;stroke-width:1px;stroke-linecap:butt;stroke-linejoin:miter;stroke-opacity:1"
     xml:space="preserve"><tspan
       y="188.99702"
       x="573.96667"
       id="tspan250"
       sodipodi:role="line">log<tspan
   style="font-size:65%;baseline-shift:sub"
   id="tspan55">2</tspan>x</tspan></text>
</svg>
